<svg width="202" height="179" viewBox="0 0 202 179" fill="none" xmlns="http://www.w3.org/2000/svg">
<path d="M23.7874 37.3696L24.7763 35.7825C33.1261 22.4056 48.1879 14.3393 64.0597 15.316C66.1047 15.4378 68.1374 15.7089 70.1408 16.127C84.5807 19.1398 97.1457 29.7786 102.359 43.4084C105.424 51.4224 106.279 60.6485 112.091 67.0099C119.658 75.2942 132.5 75.5515 143.79 75.207C155.08 74.8626 167.953 75.1547 175.462 83.4695C180.178 88.6755 181.673 96.0747 181.279 103.047C180.272 121.503 167.076 138.006 150.292 146.212C133.507 154.418 113.76 155.15 95.3826 151.545C69.6531 146.491 45.1764 132.604 30.4681 111.165C15.7597 89.7263 12.0323 60.5133 23.7874 37.3696Z" fill="#F5F5F5"/>
<path d="M175.972 29.6784C175.954 29.7158 175.94 29.7554 175.932 29.7961L175.833 30.1449C175.784 30.3372 175.723 30.5265 175.65 30.7118C175.569 30.9298 175.484 31.187 175.355 31.4617L175.158 31.8977L174.903 32.3686C174.815 32.5416 174.717 32.7091 174.607 32.87C174.496 33.0357 174.397 33.2188 174.263 33.3933C173.006 35.1845 171.246 36.5848 169.193 37.4264C168.57 37.6804 167.925 37.8775 167.264 38.015C166.562 38.1508 165.853 38.2469 165.139 38.3028C163.676 38.4423 162.092 38.5208 160.575 39.1138C159.043 39.7756 157.684 40.7669 156.601 42.0133C155.455 43.1976 154.529 44.5666 153.863 46.0595C153.562 46.7802 153.378 47.5422 153.317 48.3181C153.265 49.0593 153.313 49.804 153.46 50.533C153.759 51.8692 154.163 53.1811 154.668 54.4571C155.099 55.5641 155.42 56.7088 155.626 57.8755C155.793 58.8378 155.755 59.8233 155.514 60.7706C155.332 61.4853 155.001 62.156 154.543 62.7414C154.253 63.1129 153.899 63.4317 153.496 63.6832C153.223 63.8533 153.048 63.9187 153.048 63.9274C153.204 63.8675 153.353 63.7945 153.496 63.7094C153.908 63.4637 154.272 63.1476 154.57 62.7763C155.044 62.1908 155.387 61.515 155.577 60.7924C155.83 59.8341 155.877 58.8351 155.715 57.8581C155.511 56.6848 155.193 55.5329 154.767 54.4179C154.27 53.1407 153.872 51.8289 153.576 50.4938C153.437 49.7755 153.392 49.043 153.442 48.3137C153.502 47.5536 153.685 46.8076 153.984 46.1031C154.645 44.6257 155.562 43.2702 156.695 42.0961C157.764 40.8669 159.104 39.8891 160.615 39.2359C162.096 38.6472 163.667 38.5688 165.134 38.4249C165.852 38.3633 166.566 38.2644 167.273 38.1284C167.947 37.9966 168.606 37.8039 169.242 37.5528C171.312 36.6976 173.081 35.2715 174.33 33.4499C174.464 33.2755 174.567 33.0924 174.675 32.9224C174.781 32.7575 174.878 32.5872 174.965 32.4122L175.216 31.9413L175.408 31.5053C175.519 31.258 175.614 31.0047 175.695 30.7466C175.762 30.5598 175.817 30.369 175.86 30.1755C175.896 30.0229 175.927 29.9051 175.945 29.8223C175.958 29.7751 175.967 29.727 175.972 29.6784Z" fill="#455A64"/>
<path d="M166.875 25.0566L166.777 25.1438L166.499 25.4054C166.379 25.5231 166.244 25.6801 166.052 25.8414C165.859 26.0027 165.712 26.2425 165.533 26.5042C165.081 27.1319 164.71 27.8113 164.428 28.5273C164.045 29.4736 163.817 30.4726 163.752 31.4878C163.722 32.0772 163.744 32.6681 163.819 33.2537C163.911 33.8881 164.051 34.5148 164.24 35.1285C164.611 36.4017 165.135 37.7097 165.528 39.1442C165.722 39.8757 165.831 40.6259 165.855 41.381C165.872 42.1684 165.79 42.9548 165.609 43.7224C165.231 45.3502 164.475 46.8717 163.398 48.1698C162.319 49.4566 160.984 50.5184 159.474 51.2916C158.073 52.0215 156.563 52.5335 154.999 52.809C153.505 53.0793 152.055 53.149 150.713 53.3496C149.456 53.4959 148.235 53.8559 147.106 54.4135C145.495 55.2933 144.234 56.6754 143.526 58.3376C143.335 58.7842 143.185 59.2468 143.079 59.7198C143.052 59.8811 143.034 60.0032 143.016 60.0948C143.013 60.1369 143.013 60.1791 143.016 60.2212C143.016 60.2212 143.016 60.1776 143.047 60.0948C143.079 60.0119 143.092 59.8855 143.124 59.7285C143.234 59.261 143.384 58.8031 143.571 58.3594C143.885 57.6637 144.296 57.0137 144.793 56.4279C145.451 55.6519 146.256 55.0065 147.164 54.5268C148.286 53.9814 149.498 53.6316 150.744 53.4935C152.086 53.2973 153.532 53.2319 155.04 52.9659C156.618 52.687 158.142 52.1722 159.559 51.4399C161.088 50.6581 162.439 49.5846 163.533 48.2831C164.616 46.971 165.381 45.4373 165.77 43.7965C165.947 43.0166 166.028 42.2189 166.012 41.4202C165.987 40.6549 165.876 39.8945 165.68 39.153C165.3 37.7054 164.75 36.3973 164.374 35.1329C164.177 34.5271 164.027 33.9076 163.926 33.2798C163.847 32.7019 163.821 32.1182 163.85 31.5358C163.953 29.7631 164.549 28.051 165.573 26.5826C165.748 26.3167 165.931 26.1074 166.079 25.9112C166.226 25.715 166.374 25.5711 166.49 25.4752L166.754 25.2005C166.799 25.1562 166.84 25.108 166.875 25.0566Z" fill="#455A64"/>
<path d="M144.64 56.3015C144.746 56.4155 144.863 56.5192 144.989 56.611C145.222 56.8072 145.567 57.0776 146.001 57.4002C147.126 58.2476 148.298 59.0365 149.509 59.7634C150.721 60.49 151.971 61.1551 153.254 61.756C153.746 61.9871 154.149 62.1659 154.427 62.2792C154.569 62.3499 154.719 62.4054 154.874 62.4449C154.741 62.3627 154.602 62.2899 154.458 62.2269L153.303 61.6644C152.332 61.1848 151.008 60.4872 149.594 59.637C148.18 58.7867 146.945 57.9452 146.068 57.3174L145.034 56.5674C144.91 56.4689 144.779 56.3799 144.64 56.3015V56.3015Z" fill="#455A64"/>
<path d="M147.043 54.4702C147.154 54.5499 147.272 54.6186 147.397 54.6751L148.372 55.1896C149.196 55.6257 150.323 56.2448 151.545 56.9729C152.767 57.7011 153.84 58.4074 154.61 58.9263L155.505 59.5454C155.614 59.6248 155.73 59.6962 155.85 59.7591C155.755 59.6626 155.652 59.575 155.541 59.4975C155.335 59.3361 155.031 59.1138 154.646 58.8434C153.89 58.2984 152.816 57.5834 151.594 56.8509C150.373 56.1183 149.232 55.5123 148.395 55.1068C147.974 54.8975 147.634 54.7362 147.392 54.6315C147.281 54.5687 147.164 54.5147 147.043 54.4702V54.4702Z" fill="#455A64"/>
<path d="M150.489 53.7638C150.705 53.9474 150.937 54.1123 151.182 54.2565C151.63 54.5399 152.234 54.9236 152.923 55.3291C153.612 55.7346 154.243 56.079 154.713 56.3232C154.958 56.4656 155.216 56.5867 155.483 56.6851C155.257 56.5209 155.017 56.375 154.767 56.2491L153.004 55.2201L151.241 54.1867C151.004 54.0236 150.752 53.882 150.489 53.7638V53.7638Z" fill="#455A64"/>
<path d="M153.702 50.0577C153.861 50.2003 154.037 50.3246 154.225 50.4283L155.519 51.2742L156.803 52.1462C156.972 52.2771 157.155 52.3897 157.349 52.4819C157.209 52.3155 157.047 52.1687 156.865 52.0459C156.552 51.8017 156.109 51.4834 155.604 51.1477C155.098 50.812 154.628 50.5286 154.261 50.3367C154.088 50.2208 153.9 50.127 153.702 50.0577Z" fill="#455A64"/>
<path d="M153.957 46.7527C153.957 46.7745 154.337 46.9751 154.95 47.3196C155.563 47.664 156.4 48.1654 157.282 48.7671C158.163 49.3688 158.933 49.9705 159.474 50.4153C159.76 50.6686 160.058 50.9073 160.369 51.1303C160.308 51.0485 160.239 50.9726 160.163 50.9036C160.025 50.7641 159.814 50.5722 159.55 50.3368C158.172 49.1242 156.647 48.0802 155.009 47.228C154.695 47.0667 154.436 46.9446 154.257 46.8618C154.162 46.8127 154.061 46.776 153.957 46.7527V46.7527Z" fill="#455A64"/>
<path d="M155.635 44.189C155.612 44.2238 157.183 45.3269 159.143 46.6612C161.103 47.9954 162.722 49.0418 162.722 49.0113C162.722 48.9808 161.179 47.8689 159.219 46.5391C157.259 45.2092 155.661 44.1541 155.635 44.189Z" fill="#455A64"/>
<path d="M156.973 41.2982C157.066 41.3813 157.168 41.4543 157.277 41.5162C157.501 41.6644 157.783 41.8519 158.123 42.0699C158.839 42.5364 159.823 43.1905 160.893 43.9317C161.962 44.6729 162.911 45.3705 163.577 45.8763L164.392 46.478C164.487 46.5566 164.591 46.6253 164.701 46.6829C164.62 46.5886 164.528 46.5038 164.428 46.4301C164.249 46.2775 163.98 46.0594 163.644 45.7935C162.973 45.2659 162.034 44.5552 160.96 43.814C159.886 43.0727 158.892 42.4274 158.163 41.9827C157.796 41.7603 157.496 41.5859 157.268 41.4682C157.176 41.4018 157.077 41.3448 156.973 41.2982V41.2982Z" fill="#455A64"/>
<path d="M159.734 39.6981C159.707 39.7286 161.041 40.6704 162.705 41.7997C164.37 42.929 165.744 43.8097 165.77 43.7792C165.797 43.7487 164.459 42.8025 162.795 41.6776C161.13 40.5527 159.756 39.6632 159.734 39.6981Z" fill="#455A64"/>
<path d="M162.629 38.0847C163.103 38.5524 163.615 38.9825 164.159 39.3709C164.671 39.8003 165.213 40.1923 165.784 40.5438C165.308 40.0713 164.796 39.6341 164.253 39.2357C163.742 38.8139 163.199 38.4292 162.629 38.0847V38.0847Z" fill="#455A64"/>
<path d="M164.58 34.0342C164.779 34.249 164.998 34.446 165.233 34.6228C165.649 34.9673 166.24 35.4338 166.911 35.9308C167.582 36.4279 168.204 36.8378 168.665 37.1299C168.905 37.2993 169.161 37.4453 169.43 37.5659C169.209 37.3727 168.973 37.1963 168.723 37.0383C168.276 36.7244 167.667 36.2927 167.001 35.8088C166.334 35.3248 165.734 34.8713 165.3 34.5443C165.075 34.3558 164.834 34.1852 164.58 34.0342V34.0342Z" fill="#455A64"/>
<path d="M163.739 31.2786C163.83 31.3643 163.931 31.4403 164.038 31.5053C164.231 31.6448 164.522 31.8367 164.88 32.0678C165.6 32.5343 166.611 33.1578 167.752 33.8118C168.894 34.4658 169.954 34.9978 170.728 35.3727C171.113 35.5602 171.431 35.7085 171.65 35.8088C171.76 35.868 171.878 35.9148 171.999 35.9483C171.898 35.8762 171.79 35.8134 171.677 35.7608L170.782 35.2855C170.021 34.8888 168.992 34.3307 167.833 33.6854C166.674 33.0401 165.676 32.4384 164.942 31.9936L164.074 31.4704C163.97 31.3941 163.858 31.3298 163.739 31.2786V31.2786Z" fill="#455A64"/>
<path d="M165.081 28.3354C165.183 28.4241 165.292 28.5043 165.408 28.5753C165.622 28.7235 165.936 28.9328 166.329 29.19C167.113 29.6958 168.204 30.3847 169.426 31.1216C170.648 31.8585 171.762 32.5038 172.558 32.9572C172.965 33.1839 173.297 33.3671 173.529 33.4891C173.647 33.5566 173.769 33.6149 173.896 33.6636C173.792 33.5778 173.68 33.5019 173.561 33.4368L172.612 32.8656L169.48 30.9951L166.347 29.1028L165.399 28.5273C165.299 28.4537 165.193 28.3895 165.081 28.3354V28.3354Z" fill="#455A64"/>
<path d="M47.3425 115.255C47.3649 115.277 47.696 114.954 48.3404 114.418C48.6625 114.152 49.0608 113.829 49.5441 113.485C50.0892 113.095 50.6635 112.745 51.2623 112.438C51.6079 112.266 51.967 112.12 52.3363 112.002C52.7234 111.865 53.1323 111.794 53.5445 111.793C53.748 111.793 53.9488 111.839 54.1306 111.928C54.3087 112.018 54.4506 112.164 54.5334 112.343C54.6201 112.538 54.6614 112.749 54.6542 112.962C54.6503 113.191 54.6203 113.419 54.5647 113.642C54.4448 114.114 54.2707 114.572 54.0456 115.007C53.8099 115.468 53.5454 115.915 53.2536 116.345C52.0003 118.149 50.4311 119.724 48.6178 120.997C48.1893 121.296 47.7408 121.567 47.2754 121.808C46.8361 122.043 46.3707 122.227 45.8882 122.358C45.6619 122.419 45.4293 122.456 45.1947 122.467C44.9779 122.479 44.761 122.445 44.5593 122.366C44.3702 122.293 44.2123 122.159 44.1118 121.987C44.0162 121.812 43.9626 121.618 43.9552 121.42C43.942 121.018 44.0026 120.616 44.1341 120.234C44.2559 119.871 44.4055 119.517 44.5816 119.175C44.8802 118.583 45.2227 118.013 45.6063 117.47C45.9464 116.99 46.2596 116.598 46.5281 116.271C47.0561 115.63 47.3783 115.294 47.3559 115.273C47.3336 115.251 47.2575 115.338 47.0919 115.491C46.9264 115.643 46.6982 115.87 46.4162 116.179C46.0696 116.554 45.7425 116.946 45.4363 117.352C45.0264 117.893 44.6613 118.464 44.3445 119.062C44.1624 119.414 44.0054 119.778 43.8746 120.152C43.7244 120.572 43.6532 121.015 43.6643 121.46C43.669 121.705 43.7334 121.945 43.8522 122.162C43.9808 122.393 44.1858 122.576 44.434 122.68C44.6802 122.781 44.946 122.827 45.2126 122.816C45.474 122.808 45.7337 122.771 45.9867 122.707C46.4947 122.572 46.9855 122.382 47.4499 122.14C47.935 121.88 48.4015 121.589 48.846 121.268C50.7049 119.976 52.3075 118.365 53.5758 116.515C53.8773 116.074 54.1479 115.614 54.3857 115.137C54.6177 114.677 54.7963 114.193 54.9182 113.694C54.9791 113.447 55.0091 113.194 55.0077 112.94C55.0149 112.68 54.9597 112.421 54.8466 112.186C54.7318 111.946 54.538 111.751 54.2962 111.632C54.0705 111.524 53.8224 111.469 53.5713 111.47C53.1214 111.475 52.6759 111.558 52.2557 111.715C51.8766 111.852 51.5087 112.016 51.155 112.207C50.5526 112.533 49.9779 112.904 49.4367 113.319C48.9579 113.685 48.5686 114.021 48.2598 114.309C47.9511 114.597 47.7229 114.828 47.5752 114.989C47.4275 115.15 47.3336 115.246 47.3425 115.255Z" fill="#455A64"/>
<path d="M51.6337 116.302C51.6068 116.302 51.7366 116.738 51.9066 117.514C51.9916 117.906 52.0856 118.386 52.1617 118.944C52.2485 119.575 52.2844 120.212 52.2691 120.849C52.2604 121.216 52.2215 121.582 52.1527 121.944C52.0877 122.327 51.9529 122.696 51.7545 123.034C51.6532 123.199 51.5157 123.34 51.3518 123.448C51.1883 123.551 50.9961 123.603 50.8014 123.596C50.5884 123.59 50.3793 123.54 50.1883 123.448C49.9858 123.347 49.7965 123.222 49.6245 123.077C49.2587 122.769 48.9299 122.42 48.6446 122.039C48.3428 121.638 48.0692 121.217 47.8257 120.779C46.8091 118.92 46.1494 116.896 45.8792 114.806C45.8209 114.313 45.7955 113.816 45.8031 113.319C45.8104 112.847 45.8719 112.378 45.9866 111.92C46.0448 111.706 46.1258 111.498 46.2282 111.3C46.3229 111.118 46.4573 110.957 46.622 110.83C46.7759 110.712 46.9638 110.645 47.159 110.638C47.3561 110.634 47.5517 110.673 47.7317 110.751C48.0929 110.915 48.4216 111.139 48.7027 111.414C48.9722 111.672 49.2206 111.951 49.4455 112.247C49.8411 112.755 50.1943 113.293 50.5016 113.855C50.7701 114.353 50.9759 114.797 51.137 115.164C51.4592 115.9 51.6068 116.319 51.6337 116.31C51.6299 116.201 51.6072 116.094 51.5665 115.992C51.5084 115.787 51.4144 115.491 51.2757 115.12C51.137 114.749 50.9446 114.287 50.6895 113.773C50.3998 113.186 50.06 112.625 49.6738 112.094C49.4487 111.782 49.1956 111.49 48.9175 111.222C48.6167 110.913 48.2603 110.66 47.866 110.476C47.6454 110.379 47.4056 110.33 47.1634 110.332C46.9017 110.339 46.6485 110.424 46.4385 110.577C46.2347 110.731 46.0669 110.926 45.9463 111.148C45.8271 111.366 45.734 111.598 45.6689 111.837C45.5416 112.318 45.4725 112.813 45.4631 113.31C45.4477 113.824 45.4701 114.339 45.5302 114.85C45.7911 116.989 46.4668 119.06 47.5214 120.954C47.7742 121.409 48.0598 121.846 48.3761 122.262C48.6787 122.662 49.0286 123.027 49.4187 123.348C49.6122 123.506 49.824 123.642 50.0496 123.753C50.2797 123.869 50.5334 123.935 50.7924 123.945C51.0527 123.951 51.3088 123.879 51.5263 123.74C51.7259 123.604 51.8937 123.429 52.0185 123.225C52.2305 122.854 52.3714 122.447 52.4346 122.026C52.5014 121.651 52.5344 121.27 52.5331 120.888C52.5361 120.237 52.4807 119.586 52.3675 118.944C52.2868 118.462 52.1808 117.985 52.0498 117.514C51.9424 117.126 51.8395 116.829 51.7679 116.642C51.745 116.521 51.6995 116.406 51.6337 116.302V116.302Z" fill="#455A64"/>
<path d="M50.166 114.292C50.166 114.322 50.6134 114.435 51.3697 114.706C51.7545 114.841 52.2199 115.015 52.7523 115.246C53.3489 115.507 53.9235 115.813 54.4706 116.162C54.7882 116.36 55.0876 116.585 55.3656 116.833C55.6667 117.087 55.917 117.393 56.1039 117.736C56.1954 117.906 56.2473 118.094 56.256 118.285C56.26 118.477 56.2021 118.664 56.0905 118.822C55.9747 118.989 55.8218 119.129 55.643 119.232C55.4481 119.345 55.241 119.437 55.0255 119.506C54.5625 119.644 54.0853 119.732 53.6025 119.768C53.093 119.801 52.5817 119.801 52.0722 119.768C50.9953 119.706 49.9269 119.544 48.8817 119.284C47.8344 119.029 46.8141 118.679 45.8344 118.237C45.3717 118.026 44.9233 117.786 44.492 117.518C44.0839 117.271 43.707 116.979 43.3689 116.646C43.2098 116.487 43.0715 116.31 42.9572 116.118C42.8461 115.945 42.7758 115.75 42.7514 115.547C42.731 115.359 42.77 115.169 42.8633 115.002C42.9639 114.83 43.1013 114.682 43.266 114.566C43.6002 114.358 43.97 114.211 44.3578 114.13C44.7238 114.042 45.0963 113.982 45.472 113.951C46.1243 113.902 46.7796 113.902 47.4319 113.951C48.0092 113.995 48.5058 114.056 48.913 114.113C49.7185 114.235 50.1615 114.335 50.1704 114.305C50.0724 114.253 49.9667 114.216 49.8572 114.196C49.6514 114.135 49.3426 114.056 48.9354 113.973C48.5282 113.89 48.0405 113.812 47.4498 113.751C46.7855 113.682 46.1164 113.668 45.4496 113.707C45.0592 113.73 44.6714 113.786 44.2907 113.873C43.862 113.957 43.4535 114.12 43.087 114.353C42.8848 114.483 42.715 114.656 42.5903 114.858C42.4576 115.078 42.3997 115.333 42.4247 115.586C42.4477 115.838 42.5287 116.081 42.6619 116.297C42.7877 116.509 42.9378 116.707 43.1094 116.886C43.4637 117.247 43.8602 117.566 44.2907 117.836C44.7322 118.118 45.1926 118.37 45.6689 118.591C46.6749 119.047 47.7239 119.408 48.8012 119.668C49.8695 119.933 50.9622 120.095 52.0632 120.152C52.5897 120.18 53.1176 120.171 53.6428 120.125C54.1526 120.086 54.6558 119.988 55.1418 119.833C55.3833 119.757 55.6146 119.653 55.8309 119.524C56.051 119.392 56.2401 119.217 56.3858 119.009C56.5279 118.797 56.5997 118.547 56.5916 118.294C56.5804 118.056 56.5146 117.824 56.3992 117.614C56.1881 117.242 55.9091 116.911 55.5759 116.637C55.2804 116.386 54.9646 116.159 54.6317 115.957C54.061 115.618 53.4623 115.327 52.8418 115.085C52.3778 114.899 51.9044 114.736 51.4234 114.597C51.0296 114.483 50.7164 114.409 50.506 114.366C50.3975 114.323 50.2827 114.298 50.166 114.292V114.292Z" fill="#455A64"/>
<path d="M47.9107 116.807C47.8532 117.032 47.8652 117.267 47.9452 117.485C48.0252 117.702 48.1697 117.892 48.3602 118.03C48.5508 118.167 48.779 118.247 49.0159 118.258C49.2528 118.269 49.4878 118.212 49.6911 118.093C49.8945 117.974 50.0572 117.799 50.1585 117.59C50.2598 117.381 50.2952 117.147 50.2603 116.919C50.2254 116.69 50.1217 116.477 49.9624 116.306C49.803 116.134 49.5951 116.013 49.365 115.957C49.0565 115.883 48.7305 115.931 48.4581 116.09C48.1857 116.25 47.9889 116.507 47.9107 116.807V116.807Z" fill="#455A64"/>
<path d="M23.4656 96.7898L23.5998 96.7288L23.9891 96.5369L25.4881 95.7783L30.9965 92.9573H30.9473L47.9154 99.2751L48.0675 99.3318L48.0228 99.1792L47.5037 97.3523C46.3179 93.184 45.1947 89.2381 44.2103 85.7674V85.7412L34.8134 78.8783L32.1286 76.9424L31.4171 76.4323L31.2337 76.3058C31.1949 76.2739 31.1725 76.2608 31.1665 76.2666L31.2247 76.3146L31.4037 76.4541L32.1017 76.9773L34.7508 78.9437L44.1208 85.8546L44.094 85.8153C45.0784 89.3035 46.1926 93.2276 47.3739 97.409C47.5529 98.0325 47.7274 98.656 47.893 99.2359L48.0004 99.14L30.9965 92.8657H30.9696L25.4881 95.7303L24.007 96.5108L23.6222 96.7201L23.4656 96.7898Z" fill="#3E7E45"/>
<path d="M45.7359 99.0745L46.7517 99.3667L47.0783 100.348L47.678 99.4975H48.7385L48.0941 98.6778L48.4208 97.6967L47.4229 98.0412L46.5682 97.4351L46.5951 98.4685L45.7359 99.0745Z" fill="#3E7E45"/>
<path d="M42.8055 85.4491L43.4454 85.6758L43.6199 86.3211L44.0405 85.7979L44.7251 85.8371L44.3403 85.2834L44.5909 84.6642L43.9331 84.8474L43.4051 84.4244L43.3827 85.0915L42.8055 85.4491Z" fill="#3E7E45"/>
<path d="M29.9582 75.8437L30.4236 76.5282L30.1148 77.2869L30.9247 77.0645L31.5691 77.5877L31.6049 76.768L32.3119 76.332L31.5244 76.0486L31.3185 75.2551L30.795 75.896L29.9582 75.8437Z" fill="#3E7E45"/>
<path d="M22.4364 95.9265L22.9062 96.6111L22.593 97.3697L23.4029 97.1474L24.0518 97.6706L24.0831 96.8509L24.7946 96.4148L24.007 96.1314L23.7967 95.3379L23.2776 95.9788L22.4364 95.9265Z" fill="#3E7E45"/>
<path d="M30.3296 92.5648L30.6294 93.0008L30.428 93.4848L30.9471 93.3409L31.3588 93.6767L31.3766 93.1534L31.8331 92.8744L31.3274 92.6913L31.1977 92.1855L30.8621 92.5997L30.3296 92.5648Z" fill="#3E7E45"/>
<path d="M74.142 23.2638C73.3776 18.7007 76.5543 14.3979 81.2372 13.6531C85.9202 12.9083 90.3361 16.0036 91.1004 20.5667C91.8648 25.1298 88.6881 29.4326 84.0052 30.1774C79.3222 30.9222 74.9063 27.8268 74.142 23.2638Z" fill="#3E7E45"/>
<g opacity="0.3">
<path opacity="0.3" d="M83.7487 24.5334C83.7487 24.8033 83.8309 25.0671 83.9848 25.2916C84.1387 25.516 84.3574 25.6909 84.6133 25.7942C84.8692 25.8975 85.1509 25.9245 85.4225 25.8719C85.6942 25.8192 85.9438 25.6892 86.1397 25.4984C86.3355 25.3075 86.4689 25.0643 86.523 24.7996C86.577 24.5349 86.5493 24.2605 86.4433 24.0111C86.3373 23.7617 86.1577 23.5486 85.9274 23.3986C85.6971 23.2487 85.4263 23.1686 85.1493 23.1686C84.7778 23.1686 84.4216 23.3124 84.1589 23.5684C83.8963 23.8243 83.7487 24.1714 83.7487 24.5334V24.5334Z" fill="white"/>
</g>
<g opacity="0.3">
<path opacity="0.3" d="M85.7179 20.5918C85.7179 20.7487 85.7656 20.9021 85.8551 21.0326C85.9446 21.1631 86.0718 21.2648 86.2206 21.3249C86.3694 21.385 86.5332 21.4007 86.6911 21.3701C86.8491 21.3394 86.9942 21.2639 87.1081 21.1529C87.222 21.0419 87.2996 20.9005 87.331 20.7466C87.3624 20.5926 87.3463 20.4331 87.2847 20.2881C87.223 20.1431 87.1186 20.0192 86.9847 19.932C86.8508 19.8448 86.6933 19.7982 86.5323 19.7982C86.3163 19.7982 86.1091 19.8818 85.9564 20.0306C85.8037 20.1795 85.7179 20.3813 85.7179 20.5918V20.5918Z" fill="white"/>
</g>
<path d="M90.9488 23.9578C90.9085 24.1017 98.3007 31.0126 96.3945 32.4863C94.4883 33.96 86.4741 30.1798 79.6412 24.8037C72.8083 19.4276 66.5706 12.8961 68.2799 11.1695C69.9892 9.44289 78.5225 14.5573 78.5225 14.5573L77.4844 15.1896C77.4844 15.1896 72.3251 11.9631 70.6918 13.2144C69.0585 14.4658 73.7122 19.3622 80.2811 24.0363C86.8499 28.7104 93.1995 31.9892 94.184 30.7074C95.1684 29.4255 90.5192 25.1569 90.5192 25.1569L90.9488 23.9578Z" fill="#3E7E45"/>
<g opacity="0.3">
<path opacity="0.3" d="M90.9484 23.9578C90.9082 24.1017 98.3004 31.0126 96.3942 32.4863C94.4879 33.96 86.4737 30.1798 79.6409 24.8037C72.808 19.4276 66.5702 12.8961 68.2796 11.1695C69.9889 9.44289 78.5222 14.5573 78.5222 14.5573L77.484 15.1896C77.484 15.1896 72.3247 11.9631 70.6914 13.2144C69.0582 14.4658 73.7119 19.3622 80.2807 24.0363C86.8496 28.7104 93.1992 31.9892 94.1836 30.7074C95.1681 29.4255 90.5189 25.1569 90.5189 25.1569L90.9484 23.9578Z" fill="black"/>
</g>
<g opacity="0.3">
<path opacity="0.3" d="M87.328 16.0223C87.2609 16.1051 87.8426 16.5848 88.5004 17.5527C89.3746 18.7934 89.8569 20.2563 89.8879 21.761C89.9189 23.2656 89.4973 24.7462 88.6749 26.0201C88.053 27.0099 87.4936 27.5157 87.5652 27.5941C87.6368 27.6726 88.2991 27.2628 89.0642 26.2861C89.5071 25.7051 89.8585 25.0629 90.1068 24.3807C90.7416 22.6846 90.7033 20.8186 89.9994 19.1485C89.7242 18.4769 89.3471 17.8494 88.8808 17.2867C88.0932 16.3275 87.3862 15.9656 87.328 16.0223Z" fill="white"/>
</g>
<path d="M69.6174 29.299C69.5941 28.3377 69.2787 27.4047 68.7112 26.618C68.1437 25.8313 67.3495 25.2263 66.4291 24.8794C65.5086 24.5326 64.5033 24.4595 63.5403 24.6694C62.5772 24.8794 61.6997 25.3629 61.0186 26.0588C60.3376 26.7547 59.8837 27.6318 59.7143 28.5791C59.5448 29.5264 59.6675 30.5014 60.0668 31.3808C60.4661 32.2602 61.1241 33.0044 61.9575 33.5194C62.7909 34.0344 63.7623 34.297 64.7489 34.2739C66.0715 34.2431 67.3273 33.7017 68.2403 32.7687C69.1533 31.8358 69.6486 30.5877 69.6174 29.299V29.299Z" fill="#3E7E45"/>
<g opacity="0.4">
<path opacity="0.4" d="M63.0039 27.555C63.0003 27.3979 62.9489 27.2454 62.8562 27.1168C62.7636 26.9882 62.6339 26.8893 62.4835 26.8326C62.3331 26.7759 62.1689 26.764 62.0115 26.7984C61.8542 26.8328 61.7109 26.9119 61.5997 27.0257C61.4886 27.1395 61.4146 27.2829 61.3871 27.4377C61.3597 27.5925 61.3801 27.7518 61.4456 27.8954C61.5112 28.0389 61.619 28.1603 61.7554 28.244C61.8918 28.3278 62.0507 28.3703 62.2118 28.366C62.3186 28.3637 62.4238 28.3409 62.5215 28.2989C62.6192 28.2568 62.7074 28.1964 62.781 28.121C62.8546 28.0456 62.9122 27.9568 62.9504 27.8597C62.9887 27.7625 63.0068 27.659 63.0039 27.555Z" fill="black"/>
</g>
<g opacity="0.4">
<path opacity="0.4" d="M61.3751 29.4037C61.3723 29.3118 61.3414 29.2228 61.2864 29.1481C61.2314 29.0734 61.1548 29.0164 61.0664 28.9843C60.978 28.9523 60.8818 28.9466 60.79 28.9681C60.6983 28.9896 60.6152 29.0373 60.5515 29.1051C60.4877 29.1728 60.4461 29.2575 60.432 29.3484C60.4179 29.4393 60.4319 29.5322 60.4723 29.6153C60.5127 29.6984 60.5776 29.7679 60.6587 29.8148C60.7398 29.8618 60.8334 29.8841 60.9276 29.8789C61.0506 29.8711 61.1658 29.8173 61.2492 29.7288C61.3326 29.6403 61.3776 29.5238 61.3751 29.4037V29.4037Z" fill="black"/>
</g>
<g opacity="0.4">
<path opacity="0.4" d="M62.015 30.8207C61.9683 30.8218 61.9239 30.8407 61.8913 30.8733C61.8587 30.9059 61.8405 30.9496 61.8405 30.9951C61.841 31.0174 61.8461 31.0394 61.8554 31.0598C61.8648 31.0803 61.8781 31.0987 61.8947 31.1141C61.9113 31.1295 61.9309 31.1415 61.9523 31.1495C61.9737 31.1575 61.9965 31.1614 62.0195 31.1608C62.0426 31.1608 62.0654 31.1562 62.0867 31.1474C62.1079 31.1385 62.1271 31.1255 62.143 31.1092C62.1589 31.0929 62.1712 31.0736 62.1792 31.0525C62.1872 31.0313 62.1907 31.0088 62.1895 30.9864C62.1883 30.942 62.1694 30.8999 62.1368 30.8689C62.1042 30.838 62.0605 30.8207 62.015 30.8207V30.8207Z" fill="black"/>
</g>
<path d="M49.0161 65.5668C49.0608 65.5668 49.0921 59.4102 49.0921 51.8192C49.0921 44.2282 49.0608 38.0717 49.0161 38.0717C48.9713 38.0717 48.94 44.2238 48.94 51.8192C48.94 59.4146 48.9758 65.5668 49.0161 65.5668Z" fill="#263238"/>
<path d="M48.1748 38.3072C48.5346 37.7993 48.8547 37.2659 49.1324 36.7113H48.9982V36.7462C49.2291 37.3356 49.5027 37.9082 49.817 38.4598C49.6406 37.8525 49.4131 37.2604 49.1369 36.6895V36.6547L49.0742 36.5151L49.0026 36.6459C48.6815 37.1772 48.4047 37.7327 48.1748 38.3072Z" fill="#263238"/>
<path d="M49.1728 34.8234C49.1996 34.854 49.4323 34.7057 49.6203 34.431C49.8082 34.1563 49.853 33.8904 49.8127 33.8817C49.7724 33.8729 49.665 34.0997 49.495 34.3525C49.3249 34.6054 49.146 34.7929 49.1728 34.8234Z" fill="#263238"/>
<path d="M49.6157 35.6168C49.5309 35.2788 49.4109 34.9501 49.2577 34.6358C49.1558 34.3028 49.0178 33.9812 48.846 33.6766C48.8734 34.0271 48.9659 34.3698 49.119 34.6881C49.2246 35.0248 49.393 35.3396 49.6157 35.6168V35.6168Z" fill="#263238"/>
<path d="M51.0387 41.6906C50.9366 41.4134 50.85 41.131 50.7792 40.8447C50.7639 40.5543 50.7639 40.2632 50.7792 39.9727C50.6203 40.2483 50.574 40.5722 50.6494 40.8796C50.6712 41.1877 50.81 41.4768 51.0387 41.6906Z" fill="#263238"/>
<path d="M50.7614 40.5439C50.7614 40.5439 50.7972 40.6616 50.9761 40.7052C51.0821 40.7272 51.1927 40.7084 51.2849 40.6529C51.3394 40.6147 51.3844 40.5651 51.4165 40.5077C51.4487 40.4502 51.4672 40.3865 51.4706 40.3212C51.474 40.2559 51.4623 40.1906 51.4364 40.1303C51.4104 40.07 51.3709 40.0161 51.3207 39.9727C51.2324 39.9115 51.1242 39.8836 51.0164 39.8942C50.833 39.8942 50.7703 40.025 50.7882 40.0338C50.8061 40.0425 50.8822 39.9902 51.0209 39.9989C51.0626 39.9982 51.104 40.0059 51.1424 40.0217C51.1809 40.0374 51.2155 40.0608 51.2442 40.0904C51.2728 40.1199 51.2948 40.155 51.3087 40.1933C51.3227 40.2316 51.3283 40.2723 51.3252 40.3128C51.3235 40.3535 51.3134 40.3935 51.2954 40.4302C51.2774 40.467 51.252 40.4998 51.2206 40.5267C51.1892 40.5536 51.1526 40.5741 51.1129 40.5868C51.0731 40.5995 51.0312 40.6042 50.9896 40.6006C50.8509 40.6049 50.7793 40.5265 50.7614 40.5439Z" fill="#263238"/>
<path d="M27.0498 63.6134C27.0498 63.6527 32.4552 63.6876 39.1315 63.6876C45.8078 63.6876 51.2132 63.6527 51.2132 63.6134C51.2132 63.5742 45.8122 63.5393 39.1315 63.5393C32.4508 63.5393 27.0498 63.5742 27.0498 63.6134Z" fill="#263238"/>
<path d="M26.8036 63.583C27.1541 63.5297 27.4948 63.4269 27.8149 63.2778C28.1474 63.1758 28.4637 63.029 28.7546 62.8417C28.4095 62.8964 28.0747 63.0007 27.7612 63.1513C27.4221 63.249 27.0995 63.3944 26.8036 63.583V63.583Z" fill="#263238"/>
<path d="M26.5396 63.6701C27.0494 63.9524 27.6072 64.143 28.1863 64.2326C27.94 64.0757 27.6696 63.958 27.3853 63.8838C27.1183 63.7652 26.8321 63.6929 26.5396 63.6701V63.6701Z" fill="#263238"/>
<path d="M50.1527 64.359C50.069 64.4152 49.998 64.4875 49.9441 64.5715C49.8903 64.6555 49.8546 64.7494 49.8395 64.8474C49.7859 65.0607 49.8031 65.2851 49.8887 65.4883C49.9382 65.6138 50.0217 65.7238 50.1304 65.8066C50.197 65.8486 50.2747 65.871 50.3541 65.871C50.4335 65.871 50.5112 65.8486 50.5778 65.8066C50.6918 65.7244 50.7832 65.6163 50.844 65.4915C50.9049 65.3668 50.9334 65.2295 50.9269 65.0915C50.9301 64.9801 50.9077 64.8694 50.8612 64.7675C50.8147 64.6656 50.7454 64.5752 50.6584 64.5029C50.6003 64.4539 50.5328 64.4168 50.4598 64.3936C50.3868 64.3704 50.3098 64.3616 50.2333 64.3677C50.1259 64.3677 50.0767 64.4157 50.0811 64.4201C50.0856 64.4244 50.1393 64.4201 50.2333 64.4201C50.366 64.4317 50.4907 64.4871 50.5868 64.577C50.6558 64.6422 50.7095 64.7212 50.7442 64.8084C50.779 64.8957 50.794 64.9893 50.7881 65.0828C50.7909 65.1965 50.7665 65.3093 50.7168 65.4122C50.6671 65.5152 50.5935 65.6054 50.5018 65.6758C50.4577 65.7034 50.4065 65.7181 50.3541 65.7181C50.3017 65.7181 50.2505 65.7034 50.2064 65.6758C50.1179 65.61 50.0485 65.5228 50.0051 65.4229C49.9266 65.2444 49.9017 65.0478 49.9335 64.8561C49.9801 64.6805 50.0541 64.5128 50.1527 64.359V64.359Z" fill="#263238"/>
<path d="M30.4999 64.6686C30.4999 64.6686 30.4149 64.6206 30.2985 64.7166C30.2641 64.7456 30.237 64.7819 30.2192 64.8227C30.2014 64.8635 30.1933 64.9077 30.1956 64.952C30.2069 65.0652 30.2574 65.1713 30.3388 65.2529C30.5088 65.436 30.8221 65.5058 30.9653 65.7281C30.9982 65.7862 31.0154 65.8514 31.0154 65.9178C31.0154 65.9841 30.9982 66.0494 30.9653 66.1075C30.928 66.1683 30.8737 66.2175 30.8086 66.2492C30.7436 66.2809 30.6706 66.2937 30.5983 66.2862C30.5253 66.2803 30.4559 66.2529 30.3992 66.2078C30.3425 66.1626 30.3012 66.1018 30.2806 66.0333C30.259 65.9698 30.2547 65.9018 30.268 65.8361C30.2813 65.7704 30.3119 65.7092 30.3567 65.6584C30.447 65.5565 30.5564 65.4721 30.6789 65.4098C30.7455 65.3856 30.8059 65.3472 30.8554 65.2974C30.9049 65.2477 30.9425 65.1877 30.9653 65.1221C30.9785 65.0655 30.9785 65.0067 30.9653 64.9501C30.9522 64.8935 30.9261 64.8405 30.8892 64.795C30.8361 64.7297 30.7668 64.6787 30.6878 64.6468C30.5581 64.6032 30.482 64.6119 30.4775 64.6206C30.473 64.6294 30.5491 64.6206 30.661 64.6991C30.726 64.7334 30.7814 64.7828 30.8221 64.843C30.8477 64.8796 30.8647 64.9212 30.8716 64.965C30.8786 65.0088 30.8754 65.0535 30.8623 65.0959C30.8176 65.2834 30.4596 65.3096 30.2493 65.5755C30.1888 65.644 30.1472 65.7264 30.1284 65.8149C30.1096 65.9033 30.1142 65.995 30.1419 66.0813C30.1726 66.1761 30.2315 66.2599 30.3112 66.322C30.3909 66.3841 30.4877 66.4217 30.5894 66.4301C30.6899 66.4406 30.7914 66.4228 30.8818 66.3787C30.9723 66.3347 31.0478 66.2662 31.0995 66.1816C31.1458 66.1018 31.1701 66.0116 31.1701 65.92C31.1701 65.8283 31.1458 65.7382 31.0995 65.6584C31.0082 65.5334 30.8847 65.4342 30.7415 65.3706C30.6314 65.3184 30.5278 65.254 30.4328 65.1787C30.3618 65.1175 30.3144 65.0344 30.2985 64.9433C30.2949 64.9098 30.2982 64.876 30.3082 64.8438C30.3182 64.8116 30.3347 64.7817 30.3567 64.7558C30.4104 64.6686 30.4999 64.6817 30.4999 64.6686Z" fill="#263238"/>
<path d="M30.5624 64.1192C30.6652 63.689 30.6652 63.2414 30.5624 62.8112C30.4595 63.2414 30.4595 63.689 30.5624 64.1192V64.1192Z" fill="#263238"/>
<path d="M24.1055 63.6396C24.2374 63.6856 24.3772 63.7063 24.5172 63.7006L24.9646 63.7268C24.998 63.7378 25.0341 63.7378 25.0675 63.7268C25.0893 63.7131 25.1061 63.6931 25.1157 63.6697C25.1253 63.6463 25.1273 63.6205 25.1212 63.596C25.1058 63.541 25.0729 63.4921 25.0273 63.4565L24.8304 63.2559C24.6962 63.1543 24.6079 63.0057 24.5843 62.8417C24.5803 62.7827 24.5966 62.7241 24.6307 62.6751C24.6647 62.6261 24.7145 62.5896 24.7722 62.5714C24.8632 62.5606 24.9553 62.5774 25.0362 62.6193C25.1033 62.6455 25.1391 62.6629 25.1481 62.6542C25.157 62.6455 25.1257 62.615 25.0675 62.5714C24.9807 62.4987 24.8686 62.4613 24.7543 62.4667C24.6651 62.4842 24.5852 62.5319 24.5287 62.6013C24.4722 62.6707 24.4427 62.7575 24.4456 62.846C24.4622 63.044 24.5587 63.2275 24.714 63.3562L24.9199 63.5524C24.9557 63.5829 24.9825 63.6134 24.9825 63.6265H24.9557H24.5082C24.3741 63.6089 24.238 63.6133 24.1055 63.6396V63.6396Z" fill="#263238"/>
<path d="M45.8033 63.6134C45.8033 63.6134 45.8033 63.4652 45.8033 63.2079C45.8033 62.9507 45.8033 62.5714 45.8256 62.131C45.8256 61.2153 45.8525 59.9509 45.857 58.5033L45.7854 58.5775H47.1859L47.1099 58.5033V60.0163C47.1099 60.5003 47.1099 60.9625 47.1099 61.3985C47.1099 62.2705 47.1099 63.0117 47.1323 63.6091L47.177 63.5655L46.1568 63.5873C45.9151 63.5873 45.7809 63.5873 45.7764 63.6091C45.8941 63.6164 46.0122 63.6164 46.1299 63.6091L47.177 63.6309H47.2217V63.5873C47.2217 62.9899 47.2217 62.24 47.2217 61.3767C47.2217 60.9407 47.2217 60.4785 47.2217 59.9945V58.4815L47.1457 58.4074H45.7138V58.4772C45.7138 59.9553 45.7138 61.2415 45.7496 62.1528C45.7496 62.5888 45.7496 62.9463 45.7496 63.2167C45.7559 63.3502 45.7739 63.4829 45.8033 63.6134V63.6134Z" fill="#263238"/>
<path d="M32.4464 63.6134C32.4515 63.5612 32.4515 63.5086 32.4464 63.4564C32.4464 63.3431 32.4464 63.2035 32.4464 63.0204C32.4464 62.628 32.4464 62.0961 32.4688 61.4377C32.4688 60.1035 32.4956 58.2548 32.5001 56.1575L32.424 56.2273H33.8291L33.753 56.1575V57.3086C33.753 57.688 33.753 58.0586 33.753 58.4205C33.753 59.1486 33.753 59.8332 33.753 60.4741C33.753 61.7385 33.7754 62.8111 33.7798 63.596L33.8201 63.5567H32.7954H32.518H32.4151C32.5327 63.5648 32.6509 63.5648 32.7686 63.5567L33.8201 63.5785H33.8604V63.5393C33.8604 62.7545 33.8604 61.6819 33.8872 60.4174C33.8872 59.7765 33.8872 59.1094 33.8872 58.3638C33.8872 58.0019 33.8872 57.6313 33.8872 57.2519V56.1009L33.8112 56.0267H32.3345V56.1009C32.3345 58.2286 32.3345 60.1035 32.3658 61.4333C32.3658 62.083 32.3658 62.6106 32.3882 62.9986C32.3882 63.1643 32.3882 63.3038 32.3882 63.4346C32.3882 63.5654 32.4464 63.6178 32.4464 63.6134Z" fill="#263238"/>
<path d="M42.4249 63.6134C42.43 63.5496 42.43 63.4854 42.4249 63.4216C42.4249 63.282 42.4249 63.1033 42.4249 62.8809C42.4249 62.4057 42.4249 61.7386 42.4472 60.9101C42.4472 59.2402 42.4472 56.9337 42.4786 54.3307L42.4025 54.4048H43.8075C43.6554 54.2565 43.7673 54.3655 43.7315 54.335V55.8087C43.7315 56.2927 43.7315 56.7636 43.7315 57.2258C43.7315 58.1458 43.7315 59.0135 43.7315 59.8114C43.7315 61.3985 43.7539 62.7065 43.7628 63.6134L43.7986 63.5785H42.7649H42.492H42.3935H42.4786H42.747H43.7986H43.8344V63.5437C43.8344 62.6367 43.8344 61.3287 43.8612 59.7416C43.8612 58.9437 43.8612 58.076 43.8612 57.156C43.8612 56.6939 43.8612 56.223 43.8612 55.739V54.2653C43.8254 54.2304 43.9373 54.335 43.7852 54.1868H42.3085V54.2565C42.3085 56.8726 42.3309 59.2053 42.3398 60.8883C42.3398 61.708 42.3399 62.3708 42.3622 62.8417C42.3622 63.0597 42.3622 63.2341 42.3622 63.3649C42.3622 63.4957 42.4249 63.6178 42.4249 63.6134Z" fill="#263238"/>
<path d="M39.1226 63.5829C39.1244 63.5582 39.1244 63.5335 39.1226 63.5088V63.2777C39.1226 63.0771 39.1226 62.7981 39.1226 62.4449C39.1226 61.7168 39.1226 60.6747 39.145 59.3928C39.145 56.8029 39.1673 53.2232 39.1807 49.2031L39.1047 49.2773H40.5232L40.4516 49.2075V53.8162C40.4516 55.2725 40.4516 56.6416 40.4516 57.8886C40.4516 60.3651 40.4784 62.349 40.4874 63.5568L40.5142 63.5306H39.4806H39.1136C39.1136 63.5306 39.1405 63.5306 39.1986 63.5306H39.4492H40.5008H40.5321V63.5001C40.5321 62.2705 40.5321 60.2866 40.5634 57.8319C40.5634 56.5849 40.5634 55.2158 40.5634 53.7595C40.5634 53.027 40.5634 52.277 40.5634 51.5053V49.1508C40.5321 49.1159 40.6395 49.2206 40.4874 49.0723H39.0107V49.1464C39.0107 53.1839 39.0107 56.7854 39.042 59.3884C39.042 60.6703 39.042 61.708 39.0644 62.4406C39.0644 62.7894 39.0644 63.0641 39.0644 63.2603V63.4696C39.1181 63.5655 39.1181 63.5873 39.1226 63.5829Z" fill="#263238"/>
<path d="M35.7353 63.5829C35.7353 63.5829 35.7353 63.5393 35.7353 63.4564C35.7353 63.3736 35.7353 63.2428 35.7353 63.0858C35.7353 62.7588 35.7353 62.2836 35.7353 61.6775C35.7353 60.4523 35.7353 58.6821 35.7577 56.4976C35.7577 52.1375 35.7577 46.0638 35.789 39.3056L35.7129 39.3797H37.118C36.9703 39.2358 37.0732 39.3448 37.0419 39.3143V43.4869C37.0419 44.8473 37.0419 46.1728 37.0419 47.4503C37.0419 50.0097 37.0419 52.3817 37.0419 54.505C37.0419 58.7344 37.0732 61.9478 37.0822 63.5829H36.0306H35.6771C35.6771 63.5829 35.704 63.5829 35.7622 63.5829H36.0172H37.0822H37.1046V63.5567C37.1046 61.9217 37.1269 58.7082 37.1404 54.4789C37.1404 52.3555 37.1404 49.9836 37.1404 47.4242C37.1404 46.1466 37.1404 44.8081 37.1404 43.4608V39.2968C37.1046 39.262 37.2164 39.3622 37.0643 39.214H35.5876V39.2968C35.5876 46.0769 35.5876 52.1506 35.619 56.5412C35.619 58.7213 35.619 60.4654 35.6413 61.7037C35.6413 62.3054 35.6413 62.7719 35.6413 63.0989C35.6413 63.2515 35.6413 63.3692 35.6413 63.4564C35.6413 63.5436 35.7353 63.5872 35.7353 63.5829Z" fill="#263238"/>
<path d="M185.951 65.0218L184.756 85.4404L149.697 83.4914L185.951 65.0218ZM180.094 72.9442L165.014 80.7925L179.588 81.5904L180.094 72.9442Z" fill="#3E7E45"/>
<path d="M182.47 66.8051C182.582 67.2549 182.769 67.6837 183.025 68.0739C183.213 68.5018 183.475 68.8954 183.799 69.238C183.689 68.7833 183.502 68.3499 183.244 67.9561C183.053 67.5335 182.791 67.1445 182.47 66.8051V66.8051Z" fill="#263238"/>
<path d="M177.091 69.5127C177.203 69.9571 177.391 70.38 177.646 70.7641C177.831 71.1812 178.09 71.5635 178.411 71.8933C178.303 71.4485 178.117 71.0252 177.861 70.642C177.676 70.2233 177.416 69.8407 177.091 69.5127V69.5127Z" fill="#263238"/>
<path d="M171.717 72.2204C171.873 72.6491 172.103 73.0488 172.397 73.402C172.627 73.8015 172.93 74.1562 173.292 74.4484C173.137 74.0181 172.907 73.6169 172.612 73.2625C172.38 72.8659 172.077 72.513 171.717 72.2204V72.2204Z" fill="#263238"/>
<path d="M166.428 75.0501C166.579 75.4824 166.809 75.8843 167.108 76.2361C167.343 76.6319 167.646 76.9858 168.003 77.2825C167.852 76.8502 167.622 76.4483 167.323 76.0965C167.088 75.7007 166.785 75.3468 166.428 75.0501V75.0501Z" fill="#263238"/>
<path d="M160.906 77.8101C161.037 78.2612 161.246 78.6873 161.524 79.0701C161.731 79.4902 162.009 79.8734 162.347 80.2038C162.015 79.3296 161.527 78.5193 160.906 77.8101V77.8101Z" fill="#263238"/>
<path d="M155.174 80.7183C155.28 81.1456 155.465 81.5505 155.72 81.9129C155.906 82.3129 156.164 82.6776 156.481 82.9899C156.373 82.5613 156.186 82.1551 155.93 81.7909C155.749 81.3907 155.492 81.027 155.174 80.7183V80.7183Z" fill="#263238"/>
<path d="M180.792 67.6596C180.734 67.6945 180.832 67.991 181.015 68.3311C181.199 68.6712 181.396 68.911 181.463 68.8805C181.53 68.85 181.423 68.5491 181.239 68.2134C181.056 67.8776 180.85 67.6378 180.792 67.6596Z" fill="#263238"/>
<path d="M179.033 68.5099C178.971 68.5404 179.074 68.8413 179.257 69.177C179.44 69.5128 179.633 69.7613 179.705 69.7308C179.776 69.7002 179.66 69.3994 179.481 69.0593C179.302 68.7192 179.091 68.4838 179.033 68.5099Z" fill="#263238"/>
<path d="M175.109 70.5374C175.051 70.5723 175.149 70.8688 175.332 71.2089C175.516 71.5489 175.713 71.7931 175.78 71.7582C175.847 71.7233 175.74 71.4269 175.556 71.0911C175.373 70.7554 175.167 70.5069 175.109 70.5374Z" fill="#263238"/>
<path d="M173.346 71.3963C173.288 71.4268 173.386 71.7277 173.57 72.0634C173.753 72.3991 173.95 72.6477 174.017 72.6171C174.084 72.5866 173.977 72.2858 173.793 71.9457C173.61 71.6056 173.409 71.3658 173.346 71.3963Z" fill="#263238"/>
<path d="M169.797 73.3322C169.734 73.3628 169.837 73.6636 170.021 73.9993C170.204 74.3351 170.397 74.5836 170.468 74.5531C170.54 74.5226 170.428 74.2217 170.245 73.8816C170.061 73.5415 169.855 73.3061 169.797 73.3322Z" fill="#263238"/>
<path d="M168.115 74.1781C168.052 74.2086 168.155 74.5095 168.339 74.8452C168.522 75.1809 168.714 75.4295 168.786 75.3989C168.858 75.3684 168.746 75.0632 168.562 74.7275C168.379 74.3917 168.173 74.1781 168.115 74.1781Z" fill="#263238"/>
<path d="M164.486 76.0268C164.428 76.0616 164.526 76.3581 164.71 76.6982C164.893 77.0383 165.086 77.2781 165.157 77.2476C165.229 77.2171 165.117 76.9162 164.933 76.5805C164.75 76.2448 164.544 75.9962 164.486 76.0268Z" fill="#263238"/>
<path d="M162.535 77.034C162.476 77.0689 162.575 77.3654 162.758 77.7055C162.942 78.0456 163.139 78.2898 163.206 78.2549C163.273 78.22 163.165 77.9235 162.982 77.5878C162.799 77.252 162.593 77.0035 162.535 77.034Z" fill="#263238"/>
<path d="M159.027 78.8347C158.968 78.8652 159.067 79.1661 159.25 79.5018C159.434 79.8375 159.631 80.0861 159.698 80.0556C159.765 80.025 159.657 79.7242 159.474 79.3841C159.291 79.044 159.089 78.8042 159.027 78.8347Z" fill="#263238"/>
<path d="M157.004 79.8463C156.946 79.8812 157.044 80.182 157.228 80.5177C157.411 80.8535 157.608 81.102 157.675 81.0671C157.742 81.0322 157.635 80.7358 157.452 80.4C157.268 80.0643 157.062 79.8158 157.004 79.8463Z" fill="#263238"/>
<path d="M125.99 36.611C125.99 36.611 125.99 36.5849 125.99 36.5369C125.99 36.4889 125.99 36.4105 125.99 36.3189C125.99 36.127 125.99 35.848 125.99 35.4861C125.99 34.7536 125.99 33.6897 125.99 32.3381C125.99 29.6348 126.012 25.7978 126.026 21.1586L125.959 21.2197H141.817L141.745 21.1456C141.745 26.8138 141.745 32.107 141.745 36.5979L141.808 36.5325L130.335 36.5674H127.104H127.077H130.29L141.808 36.5979H141.92V36.5325C141.92 32.0416 141.92 26.7396 141.92 21.0802V21.006H141.844H125.986H125.923V21.0714C125.923 25.7106 125.945 29.5781 125.954 32.2945C125.954 33.6374 125.954 34.6969 125.954 35.4251C125.954 35.7826 125.954 36.0529 125.954 36.2448V36.5238L125.99 36.611Z" fill="#3E7E45"/>
<path d="M125.99 36.6109C125.952 36.5807 125.911 36.553 125.869 36.5281L125.507 36.3014L124.102 35.4293L118.938 32.3206L118.965 32.3685C118.965 28.3354 118.965 22.9942 118.965 17.1472L118.893 17.2214H118.934H134.568H134.541L139.88 20.1121L141.338 20.9057L141.719 21.1062L141.848 21.1717C141.81 21.1435 141.769 21.1173 141.728 21.0932L141.352 20.8752L139.911 20.0598L134.613 17.0949H118.978H118.862V17.169C118.862 23.016 118.862 28.3572 118.862 32.3903V32.4208H118.889L124.079 35.5122L125.498 36.3493L125.869 36.563L125.99 36.6109Z" fill="#3E7E45"/>
<path d="M118.911 17.1298C118.889 17.1647 120.455 18.0934 122.41 19.2052C124.366 20.3171 125.99 21.1935 125.99 21.1586C125.99 21.1237 124.446 20.195 122.487 19.0788C120.527 17.9626 118.929 17.0949 118.911 17.1298Z" fill="#3E7E45"/>
<path d="M141.097 35.9745C141.097 36.0094 141.231 36.1358 141.437 36.2492C141.642 36.3626 141.83 36.4323 141.848 36.3975C141.866 36.3626 141.719 36.2405 141.513 36.1228C141.307 36.005 141.119 35.9396 141.097 35.9745Z" fill="#3E7E45"/>
<path d="M139.593 35.133C139.571 35.1678 139.723 35.2943 139.933 35.4077C140.143 35.521 140.327 35.5908 140.345 35.5559C140.363 35.521 140.215 35.3989 140.005 35.2812C139.794 35.1635 139.615 35.0981 139.593 35.133Z" fill="#3E7E45"/>
<path d="M138.09 34.2914C138.067 34.3263 138.219 34.4527 138.425 34.5661C138.631 34.6795 138.819 34.7492 138.841 34.7143C138.864 34.6795 138.712 34.5574 138.501 34.4397C138.291 34.3219 138.107 34.2565 138.09 34.2914Z" fill="#3E7E45"/>
<path d="M136.581 33.4499C136.581 33.4847 136.716 33.6068 136.921 33.7246C137.127 33.8423 137.315 33.9077 137.338 33.8728C137.36 33.8379 137.203 33.7158 136.998 33.5981C136.792 33.4804 136.604 33.415 136.581 33.4499Z" fill="#3E7E45"/>
<path d="M135.078 32.6084C135.078 32.6433 135.208 32.7654 135.418 32.8831C135.628 33.0008 135.812 33.0662 135.83 33.0314C135.848 32.9965 135.7 32.8744 135.494 32.7567C135.288 32.6389 135.1 32.5735 135.078 32.6084Z" fill="#3E7E45"/>
<path d="M134.698 31.1303C134.658 31.1303 134.626 31.3177 134.626 31.5663C134.626 31.8148 134.662 32.0023 134.707 32.0023C134.752 32.0023 134.779 31.8148 134.779 31.5663C134.779 31.3177 134.738 31.1259 134.698 31.1303Z" fill="#3E7E45"/>
<path d="M134.684 29.4385C134.644 29.4385 134.608 29.626 134.613 29.8746C134.617 30.1231 134.649 30.3106 134.689 30.3106C134.729 30.3106 134.765 30.1187 134.765 29.8746C134.765 29.6304 134.725 29.4385 134.684 29.4385Z" fill="#3E7E45"/>
<path d="M134.671 27.7468C134.631 27.7468 134.595 27.9387 134.599 28.1828C134.604 28.427 134.635 28.6189 134.675 28.6189C134.716 28.6189 134.751 28.427 134.751 28.1828C134.751 27.9387 134.711 27.7468 134.671 27.7468Z" fill="#3E7E45"/>
<path d="M134.658 26.0551C134.617 26.0551 134.582 26.2469 134.586 26.4911C134.591 26.7352 134.622 26.9271 134.662 26.9271C134.702 26.9271 134.738 26.7396 134.734 26.4911C134.729 26.2425 134.698 26.0551 134.658 26.0551Z" fill="#3E7E45"/>
<path d="M134.644 24.3677C134.604 24.3677 134.568 24.5552 134.573 24.8037C134.577 25.0522 134.609 25.2397 134.649 25.2397C134.689 25.2397 134.725 25.0522 134.721 24.8037C134.716 24.5552 134.685 24.3677 134.644 24.3677Z" fill="#3E7E45"/>
<path d="M134.631 22.6759C134.586 22.6759 134.554 22.8634 134.559 23.1119C134.563 23.3604 134.595 23.5479 134.635 23.5479C134.675 23.5479 134.711 23.3561 134.707 23.1119C134.702 22.8678 134.671 22.6759 134.631 22.6759Z" fill="#3E7E45"/>
<path d="M134.617 20.9842C134.572 20.9842 134.541 21.176 134.545 21.4202C134.55 21.6644 134.581 21.8562 134.621 21.8562C134.662 21.8562 134.698 21.6644 134.693 21.4202C134.689 21.176 134.657 20.9842 134.617 20.9842Z" fill="#3E7E45"/>
<path d="M134.604 19.2925C134.559 19.2925 134.528 19.4844 134.532 19.7286C134.537 19.9727 134.568 20.1646 134.608 20.1646C134.648 20.1646 134.684 19.9771 134.68 19.7286C134.675 19.48 134.644 19.2925 134.604 19.2925Z" fill="#3E7E45"/>
<path d="M134.59 17.605C134.545 17.605 134.514 17.7925 134.519 18.0411C134.523 18.2896 134.554 18.4771 134.595 18.4771C134.635 18.4771 134.671 18.2896 134.666 18.0411C134.662 17.7925 134.63 17.605 134.59 17.605Z" fill="#3E7E45"/>
<path d="M119.775 32.3555C119.775 32.3206 119.582 32.2901 119.327 32.2901C119.072 32.2901 118.88 32.3206 118.88 32.3555C118.88 32.3904 119.072 32.4253 119.327 32.4253C119.582 32.4253 119.775 32.3947 119.775 32.3555Z" fill="#3E7E45"/>
<path d="M121.511 32.3555C121.511 32.3206 121.319 32.2901 121.063 32.2901C120.808 32.2901 120.616 32.3206 120.616 32.3555C120.616 32.3904 120.813 32.4253 121.063 32.4253C121.314 32.4253 121.511 32.3947 121.511 32.3555Z" fill="#3E7E45"/>
<path d="M123.247 32.3555C123.247 32.3206 123.054 32.2901 122.799 32.2901C122.544 32.2901 122.352 32.3206 122.352 32.3555C122.352 32.3904 122.544 32.4253 122.799 32.4253C123.054 32.4253 123.247 32.3947 123.247 32.3555Z" fill="#3E7E45"/>
<path d="M124.983 32.3555C124.983 32.3206 124.786 32.2901 124.536 32.2901C124.285 32.2901 124.088 32.3206 124.088 32.3555C124.088 32.3904 124.281 32.4253 124.536 32.4253C124.791 32.4253 124.983 32.3947 124.983 32.3555Z" fill="#3E7E45"/>
<path d="M126.706 32.3555C126.706 32.3206 126.514 32.2901 126.259 32.2901C126.004 32.2901 125.811 32.3206 125.811 32.3555C125.811 32.3904 126.004 32.4253 126.259 32.4253C126.514 32.4253 126.706 32.3947 126.706 32.3555Z" fill="#3E7E45"/>
<path d="M128.451 32.3555C128.451 32.3206 128.259 32.2901 128.004 32.2901C127.749 32.2901 127.556 32.3206 127.556 32.3555C127.556 32.3904 127.753 32.4253 128.004 32.4253C128.254 32.4253 128.451 32.3947 128.451 32.3555Z" fill="#3E7E45"/>
<path d="M130.187 32.3555C130.187 32.3206 129.995 32.2901 129.74 32.2901C129.485 32.2901 129.292 32.3206 129.292 32.3555C129.292 32.3904 129.485 32.4253 129.74 32.4253C129.995 32.4253 130.187 32.3947 130.187 32.3555Z" fill="#3E7E45"/>
<path d="M131.923 32.3555C131.923 32.3206 131.726 32.2901 131.476 32.2901C131.225 32.2901 131.028 32.3206 131.028 32.3555C131.028 32.3904 131.221 32.4253 131.476 32.4253C131.731 32.4253 131.923 32.3947 131.923 32.3555Z" fill="#3E7E45"/>
<path d="M133.655 32.3555C133.655 32.3206 133.462 32.2901 133.207 32.2901C132.952 32.2901 132.76 32.3206 132.76 32.3555C132.76 32.3904 132.952 32.4253 133.207 32.4253C133.462 32.4253 133.655 32.3947 133.655 32.3555Z" fill="#3E7E45"/>
<path d="M134.706 32.3555C134.706 32.3206 134.666 32.2901 134.617 32.2901C134.568 32.2901 134.523 32.3206 134.523 32.3555C134.523 32.3904 134.563 32.4253 134.617 32.4253C134.627 32.4265 134.638 32.4256 134.648 32.4228C134.659 32.4199 134.668 32.4151 134.677 32.4086C134.685 32.4021 134.692 32.3941 134.697 32.385C134.702 32.3758 134.705 32.3658 134.706 32.3555V32.3555Z" fill="#3E7E45"/>
<path d="M116.991 27.2061C116.859 27.2187 116.725 27.2187 116.593 27.2061C116.419 27.1687 116.256 27.0951 116.114 26.9906C115.971 26.886 115.854 26.7528 115.77 26.6001C115.658 26.369 115.604 26.1155 115.611 25.8602C115.619 25.6048 115.689 25.3549 115.814 25.1307C115.844 25.0691 115.887 25.0149 115.941 24.9725C115.996 24.9301 116.06 24.9007 116.128 24.8865C116.271 24.8691 116.415 24.9066 116.53 24.9912C116.769 25.217 116.943 25.4995 117.036 25.8109C117.161 26.1491 117.237 26.5029 117.26 26.8617H117.407C117.407 25.7411 117.43 24.7644 117.43 24.0668C117.43 23.7398 117.43 23.4651 117.43 23.2471C117.442 23.1486 117.442 23.0491 117.43 22.9506C117.409 23.0482 117.399 23.1475 117.398 23.2471C117.398 23.4651 117.398 23.7398 117.363 24.0668C117.336 24.7644 117.309 25.7411 117.287 26.8617H117.434C117.41 26.4894 117.332 26.1224 117.202 25.7716C117.14 25.6077 117.068 25.4475 116.987 25.292C116.906 25.1339 116.79 24.9954 116.647 24.8865C116.573 24.8323 116.49 24.7927 116.401 24.7703C116.312 24.7478 116.219 24.7429 116.128 24.7557C116.041 24.7761 115.96 24.8148 115.89 24.8691C115.821 24.9233 115.764 24.9918 115.725 25.0697C115.592 25.315 115.523 25.5881 115.523 25.8654C115.523 26.1426 115.592 26.4157 115.725 26.6611C115.817 26.8215 115.946 26.9593 116.101 27.0643C116.256 27.1693 116.433 27.2387 116.62 27.2672C116.721 27.2833 116.823 27.2833 116.924 27.2672C116.95 27.2506 116.973 27.23 116.991 27.2061V27.2061Z" fill="#3E7E45"/>
<path d="M160.973 99.5673C160.973 99.5673 160.911 99.5673 160.79 99.6196C160.669 99.6719 160.49 99.7111 160.262 99.8027C159.593 100.06 158.954 100.384 158.355 100.771C157.401 101.382 156.555 102.141 155.85 103.016C154.903 104.173 154.261 105.538 153.979 106.993C153.66 108.765 153.901 110.59 154.673 112.225C155.097 113.135 155.689 113.963 156.418 114.666C156.8 115.034 157.218 115.364 157.666 115.652C157.904 115.783 158.114 115.922 158.382 116.044C158.651 116.166 158.875 116.284 159.139 116.376C161.224 117.182 163.613 117.217 166.012 116.995C167.211 116.881 168.419 116.711 169.65 116.524C170.899 116.35 172.132 116.071 173.332 115.691C174.547 115.315 175.669 114.701 176.63 113.886C177.091 113.475 177.497 113.009 177.838 112.499C178.162 111.989 178.422 111.443 178.612 110.873C178.973 109.763 179.093 108.591 178.966 107.433C178.84 106.328 178.51 105.254 177.99 104.263C176.968 102.453 175.426 100.974 173.552 100.008C171.937 99.1582 170.173 98.611 168.352 98.3944C166.854 98.2213 165.341 98.2111 163.841 98.3639C162.712 98.4807 161.59 98.6597 160.481 98.9002C159.586 99.1007 158.87 99.2838 158.396 99.4103L157.859 99.5629L157.675 99.6239L157.863 99.5803L158.405 99.4452C158.879 99.3275 159.582 99.153 160.494 98.9656C161.604 98.7368 162.726 98.5694 163.855 98.4641C165.344 98.318 166.845 98.3355 168.33 98.5165C170.131 98.7409 171.875 99.2894 173.471 100.134C175.314 101.092 176.83 102.553 177.834 104.337C178.341 105.313 178.661 106.371 178.778 107.459C178.9 108.594 178.782 109.741 178.429 110.83C178.246 111.386 177.993 111.92 177.677 112.417C177.347 112.914 176.953 113.368 176.505 113.768C175.56 114.565 174.46 115.167 173.27 115.538C172.076 115.914 170.851 116.19 169.609 116.363C168.388 116.55 167.175 116.72 165.985 116.833C163.613 117.056 161.237 117.025 159.188 116.232C157.233 115.496 155.656 114.039 154.798 112.177C154.034 110.568 153.787 108.771 154.091 107.023C154.368 105.59 154.996 104.244 155.921 103.099C156.614 102.228 157.445 101.47 158.382 100.853C158.976 100.464 159.607 100.131 160.266 99.8594C160.494 99.7678 160.669 99.7111 160.79 99.6632L160.973 99.5673Z" fill="#263238"/>
<path d="M172.921 110.834C173.039 110.863 173.161 110.878 173.283 110.877L174.281 110.925H174.612C174.738 110.942 174.866 110.942 174.993 110.925C175.072 110.901 175.14 110.848 175.181 110.777C175.214 110.712 175.234 110.641 175.239 110.568L175.266 110.171C175.297 109.622 175.333 109.029 175.369 108.427C175.404 107.825 175.445 107.211 175.449 106.657C175.457 106.385 175.392 106.116 175.261 105.876C175.132 105.678 174.94 105.525 174.715 105.44C174.392 105.331 174.048 105.294 173.708 105.331C173.585 105.334 173.462 105.356 173.346 105.397C173.468 105.407 173.591 105.407 173.713 105.397C174.038 105.383 174.362 105.435 174.666 105.549C174.858 105.636 175.015 105.782 175.113 105.964C175.225 106.183 175.279 106.425 175.27 106.67C175.27 107.202 175.203 107.808 175.176 108.414C175.149 109.02 175.113 109.63 175.082 110.158C175.055 110.415 175.113 110.738 174.93 110.782C174.819 110.797 174.706 110.797 174.594 110.782H173.252C173.14 110.785 173.028 110.803 172.921 110.834V110.834Z" fill="#263238"/>
<path d="M173.422 107.978C173.723 108.067 174.038 108.103 174.352 108.083C174.666 108.116 174.983 108.092 175.288 108.013C174.987 107.921 174.671 107.886 174.357 107.908C174.043 107.875 173.726 107.898 173.422 107.978V107.978Z" fill="#263238"/>
<path d="M168.768 107.167C169.238 107.231 169.713 107.255 170.187 107.237C170.657 107.273 171.13 107.273 171.601 107.237C171.145 107.096 170.668 107.033 170.191 107.049C169.713 107.013 169.233 107.052 168.768 107.167Z" fill="#263238"/>
<path d="M168.491 109.251C168.951 109.354 169.425 109.386 169.896 109.347C170.366 109.365 170.835 109.311 171.288 109.186C170.823 109.142 170.356 109.142 169.892 109.186C169.424 109.166 168.955 109.188 168.491 109.251Z" fill="#263238"/>
<path d="M160.969 110.503C160.969 110.503 160.969 110.315 160.969 109.971C160.99 109.484 161.081 109.003 161.237 108.54C161.309 108.216 161.492 107.925 161.757 107.716C161.832 107.675 161.918 107.656 162.005 107.661C162.092 107.666 162.175 107.696 162.244 107.747C162.402 107.861 162.53 108.011 162.616 108.183C162.974 109.041 163.127 109.967 163.063 110.891H163.238C163.187 110.223 163.196 109.551 163.264 108.885C163.289 108.614 163.328 108.345 163.381 108.078C163.425 107.832 163.558 107.609 163.757 107.45C163.852 107.384 163.966 107.348 164.083 107.348C164.201 107.348 164.315 107.384 164.41 107.45C164.611 107.579 164.757 107.774 164.822 108C164.886 108.227 164.928 108.459 164.947 108.693C164.974 108.924 164.996 109.151 165.005 109.373C165.03 109.787 165.03 110.202 165.005 110.616H165.144C165.18 109.635 165.211 108.833 165.233 108.244C165.233 107.982 165.233 107.769 165.233 107.599C165.243 107.523 165.243 107.447 165.233 107.372C165.216 107.446 165.205 107.522 165.202 107.599L165.148 108.244C165.113 108.828 165.059 109.63 164.996 110.607H165.135C165.158 110.189 165.158 109.77 165.135 109.351C165.135 109.129 165.108 108.915 165.081 108.663C165.063 108.418 165.02 108.175 164.951 107.939C164.878 107.675 164.71 107.446 164.477 107.293C164.343 107.211 164.188 107.169 164.03 107.171C163.869 107.172 163.712 107.222 163.582 107.315C163.348 107.498 163.189 107.756 163.135 108.043C163.078 108.317 163.036 108.594 163.009 108.872C162.949 109.549 162.949 110.231 163.009 110.908H163.184C163.243 109.96 163.075 109.012 162.692 108.139C162.59 107.938 162.436 107.767 162.244 107.642C162.153 107.578 162.044 107.541 161.931 107.536C161.818 107.53 161.707 107.557 161.609 107.612C161.32 107.84 161.122 108.159 161.05 108.514C160.902 108.989 160.826 109.483 160.826 109.979C160.826 110.154 160.826 110.289 160.848 110.376C160.881 110.424 160.922 110.467 160.969 110.503V110.503Z" fill="#263238"/>
<path d="M157.049 110.228C157.049 110.228 157.112 110.302 157.264 110.376C157.48 110.479 157.717 110.535 157.957 110.542C158.321 110.553 158.679 110.457 158.987 110.267C159.363 110.024 159.631 109.651 159.738 109.223C159.844 108.796 159.78 108.344 159.559 107.961C159.374 107.656 159.1 107.411 158.772 107.259C158.555 107.157 158.319 107.102 158.078 107.097C157.99 107.091 157.902 107.103 157.819 107.132C158.129 107.157 158.432 107.237 158.714 107.368C159.006 107.524 159.248 107.756 159.412 108.039C159.599 108.391 159.65 108.797 159.555 109.182C159.459 109.568 159.224 109.906 158.893 110.136C158.613 110.316 158.287 110.414 157.953 110.42C157.642 110.412 157.335 110.347 157.049 110.228V110.228Z" fill="#263238"/>
<path d="M155.993 105.288C156.667 105.328 157.335 105.44 157.984 105.623L158.284 105.719L158.06 105.497C157.629 105.114 157.256 104.673 156.951 104.189C156.712 103.784 156.63 103.309 156.718 102.85C156.767 102.646 156.892 102.484 157.062 102.48C157.239 102.483 157.413 102.528 157.568 102.611C157.805 102.73 158.015 102.894 158.186 103.095C158.306 103.238 158.356 103.334 158.369 103.326C158.351 103.226 158.306 103.133 158.239 103.055C158.085 102.825 157.874 102.637 157.626 102.506C157.454 102.401 157.256 102.343 157.053 102.336C156.991 102.338 156.93 102.352 156.874 102.379C156.817 102.405 156.767 102.442 156.727 102.489C156.647 102.58 156.59 102.689 156.561 102.807C156.451 103.306 156.534 103.828 156.794 104.272C157.106 104.777 157.497 105.232 157.953 105.619L158.029 105.488C157.552 105.349 157.059 105.273 156.561 105.262C156.372 105.238 156.179 105.246 155.993 105.288Z" fill="#263238"/>
<path d="M126.026 100.13L116.49 98.3377L98.1973 102.428L88.9257 104.311L88.7915 116.655L109.474 120.365L123.43 116.336L128.706 108.772L126.026 100.13Z" fill="#FFBE9D"/>
<path d="M132.8 101.359L123.801 99.2926C123.801 99.2926 117.438 118.477 101.736 117.636C88.9388 116.96 88.9254 104.311 88.9254 104.311L79.5688 105.92C79.5688 105.92 75.6445 129.068 79.9447 145.305C83.5244 158.822 86.7015 177.344 86.7015 177.344H148.86L132.8 101.359V101.359Z" fill="#3E7E45"/>
<path d="M41.6188 160.67C41.6188 160.67 67.2543 116.908 71.8678 111.292C76.9197 105.144 80.9514 105.855 80.9514 105.855L83.6631 135.334L61.8668 165.467L56.6717 167.294L41.6188 160.67Z" fill="#3E7E45"/>
<path d="M131.726 101.115C131.726 101.115 146.296 102.249 151.522 125.532C153.885 136.053 156.892 148.384 157.733 156.668C158.36 162.68 154.552 168.933 148.399 169.7L140.676 171.096C138.635 171.465 136.527 171.057 134.786 169.957C133.044 168.857 131.802 167.149 131.314 165.183L128.706 154.658L135.655 152.382L134.049 121.028L131.726 101.115Z" fill="#3E7E45"/>
<path d="M78.3787 122.192C78.3446 122.297 78.3221 122.405 78.3116 122.515C78.2713 122.75 78.2266 123.064 78.1639 123.452C78.1326 123.657 78.1013 123.888 78.061 124.132C78.0208 124.377 78.0073 124.651 77.9805 124.943C77.9178 125.523 77.8462 126.186 77.8149 126.923C77.7069 128.646 77.695 130.374 77.7791 132.098C77.8837 134.209 78.0988 136.314 78.4235 138.403C78.7591 140.627 79.1797 142.728 79.6048 144.629C80.0299 146.53 80.455 148.235 80.8175 149.665C81.1799 151.096 81.4976 152.242 81.7124 153.036C81.8198 153.415 81.9048 153.72 81.9719 153.947C81.999 154.054 82.0334 154.159 82.0748 154.261C82.0657 154.152 82.0462 154.044 82.0167 153.938C81.963 153.703 81.8869 153.398 81.7974 153.014L80.9741 149.609C80.6295 148.174 80.2178 146.469 79.8106 144.568C79.4034 142.667 78.9828 140.57 78.6472 138.351C78.3116 136.131 78.0834 133.991 77.9894 132.068C77.8955 130.145 77.8865 128.379 77.9894 126.914C77.9894 126.182 78.07 125.519 78.1192 124.935C78.1416 124.647 78.1639 124.377 78.1818 124.124C78.1997 123.871 78.24 123.653 78.2624 123.443C78.3071 123.055 78.3385 122.741 78.3653 122.506C78.377 122.402 78.3814 122.297 78.3787 122.192V122.192Z" fill="#263238"/>
<path d="M128.026 155.783C128.057 155.721 128.082 155.657 128.102 155.591C128.147 155.447 128.209 155.264 128.285 155.028L128.572 154.126C128.652 153.715 128.83 153.329 129.091 152.997C129.474 152.638 129.932 152.365 130.433 152.194C131.023 151.977 131.631 151.811 132.25 151.697C133.726 151.431 135.223 151.285 136.725 151.261H136.845V151.148L135.53 142.789C134.684 137.527 133.915 132.761 133.355 129.273C133.064 127.564 132.832 126.173 132.666 125.187C132.586 124.721 132.518 124.35 132.469 124.076C132.469 123.962 132.429 123.866 132.411 123.788C132.408 123.755 132.399 123.722 132.384 123.692C132.377 123.725 132.377 123.759 132.384 123.792C132.384 123.871 132.384 123.967 132.42 124.084C132.456 124.359 132.509 124.73 132.572 125.201C132.72 126.19 132.93 127.586 133.185 129.299C133.731 132.787 134.474 137.544 135.297 142.816C135.78 145.824 136.232 148.671 136.64 151.17L136.743 151.052C135.223 151.09 133.709 151.255 132.219 151.545C131.591 151.667 130.975 151.843 130.379 152.072C129.858 152.259 129.385 152.557 128.997 152.944C128.837 153.119 128.718 153.326 128.648 153.55L128.482 154.13C128.379 154.483 128.294 154.789 128.223 155.041C128.151 155.294 128.106 155.477 128.071 155.613C128.05 155.668 128.035 155.725 128.026 155.783V155.783Z" fill="#263238"/>
<path d="M148.094 159.341C148.08 159.142 148.041 158.946 147.978 158.756C147.837 158.231 147.649 157.719 147.414 157.226C146.651 155.579 145.461 154.154 143.962 153.091C142.463 152.027 140.706 151.362 138.863 151.161C138.311 151.095 137.754 151.078 137.198 151.109C136.993 151.111 136.789 151.136 136.59 151.183C137.338 151.187 138.085 151.232 138.827 151.318C140.628 151.56 142.34 152.232 143.81 153.274C145.28 154.316 146.463 155.696 147.253 157.291C147.571 157.959 147.852 158.643 148.094 159.341V159.341Z" fill="#263238"/>
<path d="M144.725 147.751C144.611 147.723 144.493 147.713 144.376 147.721C144.055 147.715 143.733 147.729 143.414 147.764C142.357 147.868 141.322 148.121 140.34 148.514C139.358 148.91 138.439 149.44 137.61 150.088C137.359 150.282 137.121 150.492 136.899 150.716C136.742 150.878 136.657 150.969 136.671 150.982C136.684 150.995 137.064 150.677 137.709 150.215C139.398 149.008 141.364 148.221 143.436 147.921C144.228 147.808 144.725 147.791 144.725 147.751Z" fill="#263238"/>
<path d="M129.645 117.636C129.675 117.429 129.685 117.221 129.677 117.012C129.677 116.611 129.703 116.036 129.757 115.325C129.891 113.47 130.218 111.634 130.733 109.844C131.254 108.057 131.957 106.325 132.831 104.673C133.171 104.041 133.458 103.535 133.668 103.195C133.786 103.021 133.888 102.837 133.972 102.646C133.829 102.801 133.702 102.968 133.592 103.147C133.355 103.478 133.046 103.971 132.697 104.599C130.835 107.892 129.778 111.56 129.609 115.316C129.578 116.031 129.583 116.624 129.609 117.012C129.6 117.221 129.612 117.43 129.645 117.636V117.636Z" fill="#263238"/>
<g opacity="0.3">
<path opacity="0.3" d="M79.0411 141.721C75.3271 135.586 75.2466 127.616 78.4908 121.229C77.4474 128.034 77.6717 134.967 79.153 141.695" fill="black"/>
</g>
<g opacity="0.3">
<path opacity="0.3" d="M112.109 148.658C114.928 149.465 118.821 149.661 121.582 148.658C119.43 151.636 115.282 152.713 111.684 151.745C108.086 150.777 104.766 147.267 104.489 143.635C106.229 145.929 109.286 147.865 112.109 148.658Z" fill="black"/>
</g>
<path d="M101.737 138.752C101.75 138.835 101.772 138.917 101.804 138.996C101.858 139.153 101.92 139.393 102.046 139.681C102.372 140.514 102.778 141.315 103.258 142.074C103.967 143.206 104.822 144.244 105.804 145.161C108.213 147.446 111.323 148.901 114.66 149.303C116.008 149.474 117.374 149.474 118.723 149.303C119.634 149.193 120.532 149.002 121.408 148.732C121.721 148.641 121.949 148.54 122.11 148.484C122.192 148.457 122.271 148.423 122.347 148.384C122.022 148.455 121.701 148.542 121.385 148.645C117.597 149.672 113.556 149.345 109.993 147.725C106.465 146.035 103.678 143.166 102.139 139.641C101.88 139.075 101.759 138.743 101.737 138.752Z" fill="#263238"/>
<path d="M133.167 169.277C133.167 169.277 133.198 169.325 133.279 169.395C133.392 169.504 133.513 169.605 133.641 169.696C134.109 170.036 134.629 170.304 135.181 170.489C136.001 170.755 136.858 170.902 137.722 170.925C138.768 170.958 139.814 170.921 140.855 170.816C143.092 170.629 145.079 170.311 146.515 170.062C147.235 169.936 147.817 169.827 148.215 169.744C148.428 169.716 148.636 169.666 148.837 169.596C148.624 169.599 148.412 169.619 148.202 169.657L146.488 169.901C145.047 170.115 143.052 170.402 140.832 170.59C139.792 170.695 138.746 170.737 137.7 170.716C136.853 170.699 136.013 170.567 135.203 170.324C134.474 170.076 133.788 169.724 133.167 169.277V169.277Z" fill="#263238"/>
<path d="M82.6296 54.5574L80.7905 52.8134C78.3428 53.8511 77.2107 56.6198 76.7945 59.1923C76.3784 61.7647 76.441 64.468 75.3179 66.8312C74.4587 68.6494 72.8971 70.3194 73.0805 72.3294C73.2551 74.2261 75.0181 75.7608 75.027 77.6662C75.027 79.5018 73.4609 80.9102 72.548 82.5147C70.7 85.763 69.5008 99.0528 70.4673 102.65C78.5978 101.965 92.9974 101.119 101.132 99.2969C98.9891 85.6409 89.9636 66.3691 82.6296 54.5574Z" fill="#263238"/>
<path d="M78.9917 66.731C78.4278 57.4482 85.3457 48.9546 94.9887 47.8341C105.222 46.6481 114.275 53.7901 115.125 63.5045L117.523 102.72C117.567 103.478 117.35 104.228 116.906 104.852C114.543 108.218 110.265 110.851 106.439 111.37C102.739 111.872 98.9846 110.934 95.8344 109.225C95.3119 108.937 94.8761 108.521 94.5706 108.017C94.2651 107.514 94.1007 106.941 94.0938 106.356L93.9282 97.5791C93.9289 97.5715 93.9279 97.5638 93.9252 97.5566C93.9225 97.5494 93.9182 97.5429 93.9127 97.5375C93.9071 97.5321 93.9005 97.528 93.8931 97.5253C93.8857 97.5227 93.8779 97.5217 93.87 97.5224C93.0271 97.5843 92.1798 97.561 91.3418 97.4526C88.9613 96.8858 82.8891 94.6098 80.8487 85.9244C80.1685 83.0467 79.4883 74.8714 78.9917 66.731Z" fill="#FFBE9D"/>
<path d="M92.2282 79.5542C92.2282 79.467 91.2303 79.3711 89.615 79.2839C89.2078 79.2839 88.8185 79.2185 88.72 78.9568C88.66 78.5569 88.7288 78.1486 88.9169 77.7883L89.9193 74.7362C91.3064 70.4109 92.2819 66.8661 92.1029 66.8182C91.9239 66.7702 90.6486 70.2278 89.2615 74.5531C88.9304 75.6213 88.6126 76.6372 88.3084 77.6052C88.1831 78.0412 87.9549 78.5732 88.201 79.1443C88.2695 79.2775 88.3684 79.3935 88.4902 79.4835C88.6121 79.5734 88.7534 79.6349 88.9035 79.6632C89.1317 79.7075 89.3647 79.7236 89.5971 79.7112C91.2259 79.7024 92.2237 79.6414 92.2282 79.5542Z" fill="#263238"/>
<path d="M81.6225 70.0141C81.7971 70.2016 82.8531 69.3383 84.3655 69.2947C85.878 69.2511 87.0056 70.0228 87.1667 69.8223C87.2473 69.7307 87.0638 69.3863 86.5716 69.0287C85.9213 68.5733 85.1346 68.3403 84.3342 68.366C83.5347 68.3929 82.7675 68.6799 82.155 69.1813C81.6852 69.5738 81.5107 69.9313 81.6225 70.0141Z" fill="#263238"/>
<path d="M96.9891 70.3891C97.1949 70.5766 98.2957 69.6043 99.9469 69.4648C101.598 69.3253 102.882 70.0621 103.048 69.8441C103.128 69.7438 102.905 69.4081 102.345 69.0506C101.596 68.6178 100.725 68.4285 99.8574 68.5099C98.9894 68.5849 98.1698 68.9322 97.5216 69.4997C97.0339 69.9226 96.8907 70.3063 96.9891 70.3891Z" fill="#263238"/>
<path d="M93.9281 97.518C93.9281 97.518 100.094 97.5834 107.469 92.6477C107.469 92.6477 105.562 100.574 93.9773 100.326L93.9281 97.518Z" fill="#EB996E"/>
<path d="M93.1454 83.1731C93.4263 82.7871 93.802 82.4759 94.2382 82.2679C94.6744 82.06 95.1571 81.962 95.6423 81.9828C95.9926 81.9878 96.3383 82.0614 96.6589 82.1992C96.9795 82.337 97.2683 82.5363 97.5082 82.7851C97.7374 83.0233 97.8843 83.3255 97.9284 83.6491C97.9725 83.9728 97.9117 84.3019 97.7543 84.5902C97.365 85.1962 96.4791 85.3924 95.7049 85.2355C94.9383 85.0311 94.2206 84.6814 93.5929 84.2065C93.4065 84.0903 93.2428 83.9426 93.1096 83.7704C93.0467 83.6901 93.0096 83.5933 93.0033 83.4923C92.9969 83.3914 93.0214 83.2909 93.0738 83.2036" fill="#EB996E"/>
<path d="M96.9712 80.2823C96.7117 80.2823 96.8146 81.9391 95.4185 83.2123C94.0224 84.4855 92.1743 84.4244 92.1743 84.6555C92.1743 84.7645 92.6218 84.952 93.3825 84.9171C94.391 84.8625 95.349 84.4697 96.0942 83.8053C96.8038 83.1729 97.2311 82.2949 97.2844 81.3592C97.3068 80.666 97.0875 80.2823 96.9712 80.2823Z" fill="#263238"/>
<path d="M96.7249 64.3111C96.9128 64.7122 98.4834 64.4026 100.358 64.4768C102.233 64.5509 103.777 64.9128 104.001 64.5422C104.095 64.3547 103.808 63.9884 103.168 63.6309C102.318 63.199 101.378 62.9591 100.419 62.9289C99.4601 62.8987 98.5065 63.079 97.6287 63.4565C96.9799 63.7704 96.6622 64.1192 96.7249 64.3111Z" fill="#263238"/>
<path d="M81.2963 64.6381C81.6185 64.9869 82.8937 64.6381 84.4286 64.6381C85.9634 64.6381 87.2521 64.8866 87.5609 64.5247C87.6951 64.3503 87.4937 64.0015 86.9299 63.6527C86.1494 63.2541 85.2779 63.0546 84.3968 63.0729C83.5158 63.0912 82.6538 63.3267 81.8914 63.7573C81.3366 64.1105 81.1531 64.468 81.2963 64.6381Z" fill="#263238"/>
<path d="M93.5926 45.872C94.4249 44.4942 95.9687 43.8663 97.6959 43.6134C104.748 42.5713 112.615 46.7091 116.566 52.4907C120.517 58.2723 120.727 66.901 117.837 73.2494L113.438 70.5722C104.609 67.0231 98.3761 58.7344 92.6977 50.1711C91.9056 49.0069 92.8543 47.071 93.5926 45.872Z" fill="#263238"/>
<path d="M82.7282 49.6522C85.677 46.3821 87.8204 43.112 93.9418 45.3967C94.8367 47.0667 93.0468 49.2337 91.5075 50.4981C89.2702 52.3555 87.3505 53.6069 85.8918 54.9367C82.9474 57.6182 79.6003 66.6394 79.3095 71.562C79.3095 71.8716 78.7502 67.337 78.4146 67.2891C78.0029 67.228 76.3428 65.2485 76.571 62.5452C77.3585 53.3061 79.7793 52.918 82.7282 49.6522Z" fill="#263238"/>
<path d="M97.678 43.6134C97.2182 43.5259 96.7425 43.5652 96.3043 43.7267C95.221 44.0504 94.2553 44.6692 93.521 45.51C93.3113 45.7464 93.1255 46.0019 92.9662 46.273C92.8271 46.535 92.719 46.8114 92.644 47.0971C92.4842 47.5577 92.363 48.0302 92.2815 48.5098C92.1607 49.3513 92.3665 49.8615 92.4113 49.8484C92.456 49.8353 92.3889 49.3339 92.5769 48.5621C92.7011 48.1055 92.8505 47.6558 93.0243 47.2148C93.1038 46.9571 93.2087 46.7074 93.3375 46.4693C93.4889 46.2194 93.6626 45.983 93.8566 45.7629C94.5494 44.9808 95.426 44.3735 96.4117 43.9927C97.1724 43.7267 97.687 43.6831 97.678 43.6134Z" fill="#455A64"/>
<path d="M83.0192 72.8701C83.0186 73.2045 83.1495 73.5265 83.3851 73.7697C83.6206 74.013 83.9428 74.1591 84.2855 74.1781C84.4557 74.1936 84.6273 74.1759 84.7904 74.1259C84.9534 74.076 85.1046 73.9948 85.235 73.8872C85.3655 73.7796 85.4726 73.6477 85.55 73.4993C85.6275 73.3508 85.6737 73.1888 85.6861 73.0227C85.6948 72.683 85.5675 72.3533 85.3311 72.1035C85.0948 71.8537 84.7679 71.7032 84.4197 71.6841C84.247 71.668 84.0726 71.6862 83.9073 71.7378C83.742 71.7894 83.5892 71.8732 83.4582 71.9842C83.3272 72.0951 83.2207 72.2308 83.1452 72.3831C83.0698 72.5354 83.0269 72.7011 83.0192 72.8701V72.8701Z" fill="#263238"/>
<path d="M97.7586 72.9398C97.7499 73.2795 97.8772 73.6091 98.1136 73.859C98.35 74.1088 98.6768 74.2592 99.025 74.2784C99.1949 74.2945 99.3664 74.2774 99.5295 74.2279C99.6925 74.1785 99.8437 74.0977 99.9742 73.9905C100.105 73.8832 100.212 73.7516 100.289 73.6033C100.367 73.4551 100.413 73.2932 100.426 73.1273C100.435 72.7869 100.309 72.4561 100.072 72.2053C99.8357 71.9545 99.5082 71.8035 99.1592 71.7844C98.9889 71.7682 98.817 71.7855 98.6537 71.8352C98.4904 71.885 98.339 71.9661 98.2084 72.0738C98.0779 72.1815 97.9708 72.3137 97.8935 72.4624C97.8163 72.6111 97.7704 72.7735 97.7586 72.9398V72.9398Z" fill="#263238"/>
<path d="M138.317 83.8533C137.485 82.5191 136.527 81.2633 135.006 80.7096C133.484 80.1559 131.757 79.8376 130.562 78.7562C128.687 77.0776 128.772 74.2871 128.943 71.8541C129.113 69.4212 129.157 66.6219 127.242 64.9869C125.64 63.6222 123.094 63.5001 121.707 61.9348C120.781 60.8927 120.597 59.4538 120.275 58.124C119.38 54.5618 117.38 48.3398 106.605 44.7601L116.136 80.0512C115.424 80.2474 113.724 81.8258 113.63 82.894C113.545 83.8925 113.988 84.9041 113.997 85.9069C113.997 87.1321 112.628 87.8646 111.76 88.7715C110.659 89.927 110.319 91.5925 110.489 93.1317C110.842 95.2352 111.419 97.2971 112.212 99.2838C121.054 98.4118 133.959 98.1328 140.698 92.639C141.919 91.6449 140.17 86.8225 138.317 83.8533Z" fill="#263238"/>
<path d="M113.42 70.5722C113.586 70.485 120.096 67.9562 120.513 74.649C120.929 81.3418 113.962 80.3477 113.939 80.1602C113.917 79.9727 113.42 70.5722 113.42 70.5722Z" fill="#FFBE9D"/>
<path d="M115.872 77.5092C115.904 77.4831 115.998 77.5834 116.208 77.6575C116.499 77.7612 116.82 77.7503 117.103 77.627C117.81 77.3218 118.351 76.1663 118.311 74.9629C118.288 74.3895 118.136 73.8281 117.864 73.3191C117.786 73.1147 117.658 72.9315 117.492 72.7851C117.327 72.6386 117.127 72.5332 116.911 72.4776C116.771 72.4504 116.626 72.4718 116.501 72.5379C116.376 72.604 116.279 72.7107 116.226 72.8395C116.145 73.0314 116.199 73.1622 116.163 73.1752C116.127 73.1883 116.007 73.0706 116.047 72.7916C116.073 72.6232 116.158 72.4689 116.289 72.3555C116.468 72.2049 116.701 72.1296 116.937 72.1463C117.222 72.1831 117.492 72.2907 117.722 72.4587C117.951 72.6267 118.133 72.8494 118.248 73.1055C118.576 73.6678 118.757 74.2994 118.777 74.9455C118.817 76.2928 118.19 77.5921 117.215 77.9278C117.035 77.9917 116.842 78.0147 116.651 77.995C116.46 77.9754 116.277 77.9136 116.114 77.8144C115.895 77.6662 115.85 77.5223 115.872 77.5092Z" fill="#EB996E"/>
<path d="M89.0554 72.3206C89.019 71.8177 88.9457 71.3179 88.8361 70.8251C88.6291 70.0005 88.2479 69.2271 87.7168 68.5542C87.1858 67.8813 86.5165 67.3237 85.7518 66.9171C84.987 66.5105 84.1437 66.2637 83.2756 66.1926C82.4075 66.1215 81.5337 66.2276 80.71 66.5042C80.1428 66.6906 79.6085 66.9612 79.126 67.3065C78.6106 67.6536 78.1571 68.0807 77.7836 68.5709C76.9818 69.5939 76.5378 70.8405 76.5169 72.1276C76.4959 73.4146 76.8991 74.6743 77.6672 75.7216C78.022 76.2221 78.4571 76.6638 78.956 77.0296C79.4262 77.3907 79.9516 77.6776 80.5131 77.8798C81.5514 78.2695 82.6778 78.3809 83.7752 78.2025C84.7322 78.0486 85.6383 77.6766 86.4198 77.1168C87.5639 76.3058 88.3945 75.1432 88.7779 73.8162C88.9014 73.3255 88.9911 72.8273 89.0464 72.325C89.0483 72.3584 89.0483 72.3919 89.0464 72.4253C89.0464 72.5081 89.0464 72.604 89.0464 72.7218C89.0425 72.8812 89.0261 73.0401 88.9972 73.197C88.9726 73.4135 88.9307 73.6278 88.8719 73.838C88.5127 75.2032 87.6834 76.4068 86.5227 77.2476C85.6631 77.8744 84.6547 78.279 83.5915 78.4239C82.5282 78.5687 81.4446 78.4491 80.4416 78.076C79.2508 77.6375 78.2211 76.8634 77.4838 75.8524C76.6859 74.7674 76.2669 73.4614 76.2887 72.1268C76.3105 70.7922 76.7718 69.4998 77.6046 68.4401C77.9923 67.9347 78.4606 67.4931 78.9918 67.1321C79.4877 66.785 80.0356 66.5144 80.6161 66.3298C81.6306 65.9882 82.7173 65.9022 83.775 66.0798C84.8328 66.2574 85.8273 66.6929 86.6659 67.3457C87.8011 68.2231 88.5913 69.455 88.9032 70.8338C88.9544 71.0462 88.9903 71.2618 89.0106 71.4791C89.0325 71.6381 89.043 71.7984 89.0419 71.9587C89.0419 72.0765 89.0419 72.1724 89.0419 72.2509C89.0475 72.2739 89.0519 72.2972 89.0554 72.3206V72.3206Z" fill="#455A64"/>
<path d="M106.345 72.591C106.309 72.0882 106.238 71.5885 106.131 71.0954C105.794 69.758 105.006 68.5695 103.893 67.7207C103.13 67.1373 102.236 66.737 101.284 66.5522C100.193 66.342 99.0642 66.4187 98.0135 66.7745C97.447 66.9628 96.913 67.2332 96.4294 67.5768C95.915 67.9251 95.4617 68.3521 95.087 68.8412C94.2862 69.8637 93.8425 71.1091 93.8208 72.395C93.799 73.681 94.2004 74.94 94.9662 75.9875C95.3229 76.488 95.7595 76.9296 96.2594 77.2956C96.7294 77.6568 97.2549 77.9438 97.8166 78.1458C98.8548 78.5355 99.9812 78.6469 101.079 78.4685C102.034 78.3147 102.939 77.9427 103.719 77.3828C104.864 76.5717 105.696 75.4093 106.081 74.0821C106.205 73.5916 106.293 73.0934 106.345 72.591C106.35 72.6242 106.35 72.658 106.345 72.6912C106.345 72.7697 106.345 72.87 106.345 72.9877C106.346 73.1472 106.331 73.3063 106.301 73.463C106.277 73.6799 106.233 73.8944 106.171 74.1039C105.815 75.4708 104.985 76.6755 103.822 77.5136C103.03 78.0928 102.111 78.484 101.137 78.6559C100.005 78.846 98.8417 78.7376 97.7673 78.342C96.5747 77.9068 95.5441 77.132 94.8096 76.1183C94.0117 75.0334 93.5927 73.7273 93.6145 72.3928C93.6362 71.0582 94.0975 69.7658 94.9304 68.7061C95.7001 67.7177 96.7549 66.9754 97.9598 66.574C99.0467 66.212 100.214 66.1413 101.338 66.369C102.536 66.609 103.637 67.1804 104.51 68.0148C105.384 68.8492 105.991 69.9113 106.26 71.0736C106.316 71.2852 106.352 71.5011 106.368 71.7189C106.394 71.8774 106.405 72.0381 106.399 72.1986V72.4907C106.389 72.5275 106.371 72.5618 106.345 72.591V72.591Z" fill="#455A64"/>
<path d="M93.9953 72.1332C93.9595 72.155 93.7805 71.8716 93.3644 71.5446C92.8309 71.1135 92.1628 70.8721 91.4699 70.8603C90.777 70.8484 90.1006 71.0666 89.5519 71.4791C89.1045 71.7887 88.9344 72.0678 88.9031 72.0416C89.0143 71.7662 89.2037 71.5273 89.449 71.3527C90.0094 70.8747 90.7326 70.6174 91.4773 70.6311C92.222 70.6448 92.9347 70.9285 93.4762 71.4268C93.7138 71.6102 93.8937 71.8549 93.9953 72.1332V72.1332Z" fill="#455A64"/>
<path d="M114.995 70.145C114.583 70.2722 114.159 70.357 113.729 70.3979C112.937 70.52 111.84 70.6333 110.632 70.738L107.531 71.0083C107.106 71.072 106.677 71.1041 106.247 71.1042C106.659 70.9759 107.083 70.8897 107.513 70.847C108.301 70.7292 109.397 70.6159 110.61 70.5112L113.706 70.2409C114.133 70.1744 114.564 70.1424 114.995 70.145V70.145Z" fill="#455A64"/>
<path d="M79.0676 76.0922C78.5091 75.4634 78.0561 74.7527 77.7252 73.9863C77.4652 73.1927 77.3339 72.3645 77.3359 71.5315C77.2363 71.7661 77.1905 72.0191 77.2016 72.2727C77.1856 72.8835 77.2889 73.4916 77.5059 74.0647C77.7224 74.638 78.0506 75.1651 78.4724 75.617C78.7991 75.9571 79.0497 76.114 79.0676 76.0922Z" fill="white"/>
<path d="M77.9852 69.2032C77.9494 69.1508 77.6943 69.2773 77.5377 69.5738C77.3811 69.8703 77.4482 70.1406 77.5109 70.1362C77.5735 70.1319 77.6272 69.9095 77.748 69.6697C77.8688 69.4299 78.0255 69.2511 77.9852 69.2032Z" fill="white"/>
<path d="M94.8637 74.7711C94.8995 74.7711 94.7742 74.4223 94.6713 73.8598C94.4074 72.3845 94.6981 70.8659 95.4901 69.5825C95.7899 69.0942 96.0316 68.8238 96.0047 68.7977C95.7411 68.9851 95.5189 69.2224 95.3514 69.4953C94.9021 70.1292 94.5932 70.8475 94.4445 71.6042C94.2958 72.3609 94.3105 73.1395 94.4878 73.8903C94.5508 74.2056 94.6787 74.5052 94.8637 74.7711Z" fill="white"/>
<path d="M118.651 80.0687C118.651 80.0687 118.745 80.1995 118.879 80.4393C119.072 80.7799 119.173 81.1623 119.175 81.5511C119.182 81.8331 119.129 82.1134 119.02 82.3745C118.91 82.6357 118.747 82.8719 118.539 83.0685C118.289 83.3109 117.983 83.4922 117.647 83.5975C117.311 83.7028 116.954 83.7292 116.606 83.6745C116.26 83.6051 115.935 83.4583 115.657 83.2457C115.379 83.0331 115.156 82.7605 115.004 82.4493C114.882 82.1937 114.814 81.9165 114.806 81.6346C114.797 81.3527 114.848 81.072 114.955 80.8099C115.096 80.4471 115.327 80.1237 115.626 79.8681C115.841 79.6893 115.984 79.6152 115.975 79.5978C115.827 79.6347 115.69 79.7032 115.572 79.7983C115.231 80.0402 114.965 80.3691 114.803 80.7489C114.673 81.0299 114.606 81.3346 114.606 81.6427C114.606 81.9508 114.673 82.2555 114.803 82.5365C114.957 82.8869 115.198 83.1946 115.504 83.4319C115.81 83.6692 116.172 83.8287 116.557 83.8962C116.942 83.9636 117.338 83.9368 117.71 83.8182C118.081 83.6996 118.417 83.4929 118.687 83.2167C118.91 82.9987 119.083 82.7373 119.195 82.4494C119.307 82.1616 119.355 81.854 119.336 81.5468C119.32 81.1362 119.189 80.7379 118.955 80.3957C118.799 80.1559 118.651 80.06 118.651 80.0687Z" fill="#E0E0E0"/>
<path d="M80.8532 85.2136C80.4746 85.3612 80.0571 85.3857 79.663 85.2834C79.2414 85.1684 78.8616 84.9402 78.5667 84.625C78.2033 84.2427 77.9582 83.7681 77.8597 83.2559C77.7572 82.7435 77.823 82.2126 78.0476 81.7386C78.2319 81.35 78.5061 81.0082 78.8486 80.7401C79.1792 80.5045 79.5403 80.3125 79.9225 80.1689C79.8087 80.159 79.6941 80.1739 79.5869 80.2125C79.2843 80.2944 78.9993 80.4288 78.7457 80.6093C78.3657 80.8815 78.0586 81.2389 77.8507 81.6514C77.5952 82.1612 77.5167 82.7381 77.627 83.2952C77.7365 83.852 78.0102 84.3656 78.4145 84.7733C78.7428 85.1068 79.1645 85.3388 79.6272 85.4404C79.9372 85.5117 80.2617 85.495 80.5624 85.3924C80.7727 85.3096 80.8622 85.2224 80.8532 85.2136Z" fill="#E0E0E0"/>
<path d="M105.674 171.789L99.0385 173.703C99.0385 173.703 95.3782 175.233 93.5972 175.63C91.3867 176.123 89.8787 175.456 89.7982 174.257C89.7177 173.058 91.4359 172.905 91.4359 172.905C92.8964 172.363 94.3167 171.723 95.6869 170.991C96.6819 170.317 97.4954 169.42 98.0585 168.375L95.6869 168.693C95.6869 168.693 90.6976 172.181 88.8182 173.236C86.9389 174.292 86.5272 172.438 86.3661 171.88C86.205 171.322 91.9237 165.667 91.9237 165.667C91.9237 165.667 86.4467 169.094 85.4667 169.949C84.4867 170.803 83.0101 171.082 82.6834 170.529C82.3568 169.975 81.4574 169.971 82.6834 167.607C83.9095 165.244 93.7225 158.887 93.7225 158.887L91.0377 158.329L88.0933 159.607C87.8883 160.591 87.4704 161.521 86.8673 162.336C85.8068 163.871 83.9229 162.336 83.9229 162.336L85.0908 156.45L90.9079 152.901C90.9079 152.901 96.9577 153.62 97.8571 154.017C98.7566 154.414 99.741 156.084 99.741 156.084L101.374 156.729C103.911 157.444 103.826 159.916 104.645 159.995C105.464 160.073 129.332 155.539 129.332 155.539L131.494 154.989C135.073 157.636 136.501 162.009 137.132 165.89C137.132 165.89 137.789 167.791 137.132 168.837L105.674 171.789Z" fill="#FFBE9D"/>
<path d="M110.055 167.651C110.083 167.527 110.091 167.398 110.077 167.272C110.079 167.125 110.065 166.979 110.037 166.836C110.016 166.638 109.977 166.442 109.921 166.251C109.585 165.15 109.016 164.13 108.252 163.256C107.509 162.377 106.682 161.57 105.782 160.845C105.425 160.528 105.036 160.246 104.623 160.003C104.954 160.337 105.305 160.652 105.674 160.945C106.535 161.697 107.337 162.51 108.073 163.378C108.816 164.234 109.388 165.217 109.76 166.278C110.024 167.11 110.006 167.655 110.055 167.651Z" fill="#EB996E"/>
<path d="M99.7186 156.084C99.7186 156.084 99.9155 156.184 100.22 156.424C100.644 156.773 101.011 157.183 101.307 157.64C101.521 157.949 101.704 158.278 101.853 158.621C101.991 159.025 102.078 159.444 102.113 159.868C102.174 160.362 102.355 160.834 102.641 161.246C102.964 161.645 103.231 162.085 103.433 162.554C103.739 163.347 103.739 164.221 103.433 165.013L103.401 165.096L103.477 165.144C104.515 165.797 105.266 166.802 105.585 167.965C105.695 168.423 105.762 168.89 105.786 169.36C105.823 169.239 105.838 169.112 105.831 168.985C105.836 168.632 105.797 168.279 105.715 167.934C105.429 166.713 104.669 165.647 103.594 164.961L103.638 165.092C103.962 164.248 103.962 163.319 103.638 162.476C103.432 161.993 103.155 161.542 102.815 161.137C102.543 160.746 102.371 160.298 102.314 159.829C102.26 158.998 101.948 158.203 101.419 157.549C101.103 157.085 100.706 156.679 100.247 156.35C100.123 156.259 99.9875 156.184 99.8439 156.127C99.8042 156.107 99.7621 156.093 99.7186 156.084V156.084Z" fill="#EB996E"/>
<path d="M93.9729 158.691C94.5455 158.763 95.1275 158.703 95.6717 158.515C96.2159 158.327 96.707 158.017 97.1052 157.61C97.0605 157.557 96.4609 158.006 95.5972 158.298C94.7336 158.591 93.9729 158.626 93.9729 158.691Z" fill="#EB996E"/>
<path d="M92.4428 165.131C93.3069 164.895 94.1471 164.582 94.9531 164.198C95.7904 163.885 96.5988 163.502 97.3695 163.055C96.5076 163.298 95.6679 163.61 94.8592 163.989C94.0219 164.302 93.2135 164.684 92.4428 165.131V165.131Z" fill="#EB996E"/>
<path d="M97.8255 168.314C98.6942 168.027 99.5432 167.686 100.367 167.293C99.9001 167.314 99.4427 167.429 99.0247 167.634C98.5788 167.772 98.1695 168.004 97.8255 168.314Z" fill="#EB996E"/>
<path d="M93.2656 165.545C93.6508 165.746 93.9897 166.022 94.2613 166.356C94.533 166.69 94.7317 167.074 94.8452 167.485C94.8765 167.485 94.9034 167.333 94.8452 167.089C94.7819 166.769 94.6407 166.468 94.4336 166.213C94.2265 165.957 93.9595 165.753 93.6549 165.619C93.4357 165.528 93.2746 165.519 93.2656 165.545Z" fill="#EB996E"/>
<path d="M90.8673 162.009C90.8405 162.07 91.279 162.288 91.5743 162.776C91.7247 163.086 91.8504 163.407 91.9502 163.736C92.0137 163.556 92.0306 163.363 91.9994 163.175C91.9681 162.987 91.8898 162.81 91.7712 162.659C91.4311 162.101 90.8763 161.948 90.8673 162.009Z" fill="#EB996E"/>
<path d="M91.5434 155.604C91.5658 155.604 91.6553 155.504 91.7224 155.294C91.8029 155.009 91.8029 154.708 91.7224 154.422C91.6444 154.141 91.4898 153.884 91.2749 153.681C91.1138 153.529 90.9796 153.476 90.9662 153.498C91.1796 153.803 91.3525 154.132 91.4807 154.479C91.5473 154.85 91.5683 155.228 91.5434 155.604V155.604Z" fill="#EB996E"/>
<path d="M43.1671 157.61C43.1671 157.61 43.4669 151.889 49.5525 150.703C55.6381 149.517 66.2969 154.557 66.2969 154.557L96.1611 174.837L95.2661 177.344L64.9545 173.228L62.1802 174.265L40.8895 160.636L20.7981 146.482L23.0355 144.778C23.0355 144.778 28.6646 148.558 32.3876 150.184C36.1105 151.811 41.4936 154.662 43.1671 157.61Z" fill="#F5F5F5"/>
<path d="M96.6221 178.172L71.3489 162.872L44.6305 158.691C44.6305 158.691 43.2881 160.583 41.0194 160.121L19.0486 145.297L18.6325 146.19L61.2406 175.36C61.8663 175.583 62.5425 175.634 63.1963 175.51C63.8501 175.385 64.4565 175.089 64.9501 174.653L96.6221 178.172Z" fill="#455A64"/>
<path d="M44.6306 158.691C44.6912 158.755 44.7604 158.811 44.8364 158.857L45.4539 159.293C45.9909 159.668 46.765 160.213 47.6913 160.902C49.5886 162.275 52.166 164.233 54.9493 166.452C57.7325 168.671 60.2339 170.734 62.0238 172.238L64.1582 174.026L64.7399 174.505C64.8029 174.566 64.8735 174.619 64.9502 174.662C64.9502 174.662 64.8965 174.592 64.7712 174.475L64.2208 173.96C63.7376 173.524 63.0351 172.888 62.1491 172.125C60.386 170.59 57.9115 168.514 55.1148 166.286C52.3181 164.058 49.7452 162.122 47.8076 160.779C46.85 160.104 46.058 159.58 45.5032 159.227L44.8633 158.826C44.7901 158.774 44.7122 158.729 44.6306 158.691Z" fill="#263238"/>
<path d="M44.9035 155.508C47.3243 152.975 51.1367 152.072 54.6807 152.342C58.2247 152.613 61.5852 153.899 64.892 155.177L95.8077 175.796L95.5303 176.572L64.449 156.079C64.449 156.079 57.5043 153.899 54.4301 153.524C49.2932 152.901 44.9035 155.508 44.9035 155.508Z" fill="#E0E0E0"/>
<path d="M40.0529 158.22L25.188 148.449C25.188 148.449 37.3681 154.623 40.0529 158.22Z" fill="#E0E0E0"/>
<path d="M95.8077 175.796C95.7698 175.758 95.7278 175.724 95.6824 175.696L95.2976 175.43L93.8165 174.414L88.3394 170.716L70.2169 158.591L64.9546 155.103C61.9604 153.786 58.8007 152.861 55.5578 152.351C52.9381 151.991 50.2673 152.358 47.8523 153.411C46.9492 153.82 46.1173 154.364 45.3867 155.024C44.8404 155.52 44.3756 156.095 44.0085 156.729C43.7777 157.126 43.5974 157.549 43.4716 157.989C43.4403 158.133 43.4134 158.246 43.391 158.333C43.3812 158.372 43.3737 158.411 43.3687 158.451C43.5295 157.863 43.7671 157.297 44.0757 156.768C44.4517 156.151 44.9191 155.591 45.4628 155.107C46.1954 154.468 47.0219 153.939 47.915 153.537C50.3067 152.524 52.9408 152.18 55.522 152.543C58.7388 153.057 61.8735 153.976 64.8472 155.277H64.8249L70.0871 158.765L88.2231 170.847L93.7449 174.488L95.2484 175.464L95.6466 175.717C95.6974 175.749 95.7514 175.775 95.8077 175.796V175.796Z" fill="#263238"/>
<path d="M68.745 160.208C68.6745 160.151 68.5962 160.104 68.5123 160.069C68.3557 159.986 68.123 159.859 67.8232 159.711C67.2191 159.406 66.3376 158.979 65.2279 158.49C62.3504 157.176 59.2968 156.264 56.1576 155.783C53.0019 155.319 49.7778 155.606 46.7608 156.62C45.8541 156.938 44.983 157.346 44.161 157.836C43.8656 158.002 43.6553 158.163 43.5077 158.272C43.4295 158.319 43.3561 158.373 43.2884 158.434C43.2884 158.434 43.6151 158.25 44.2057 157.923C45.0382 157.468 45.9113 157.087 46.8145 156.785C49.8177 155.826 53.0098 155.564 56.1353 156.022C59.2519 156.503 62.2897 157.382 65.1697 158.639C66.2839 159.109 67.1744 159.511 67.7919 159.794L68.4989 160.112C68.5775 160.152 68.6599 160.184 68.745 160.208V160.208Z" fill="#263238"/>
<path d="M21.5947 145.868C21.5947 145.868 21.6573 145.924 21.7871 146.012L22.3643 146.387L24.5077 147.729C26.3244 148.863 28.8258 150.428 31.5688 152.19C34.3118 153.951 36.7639 155.569 38.5538 156.746L40.6703 158.133L41.252 158.503C41.3169 158.55 41.3876 158.588 41.4623 158.617C41.4069 158.56 41.3454 158.509 41.2789 158.464L40.7195 158.059C40.2363 157.71 39.5293 157.217 38.6477 156.611C36.8847 155.403 34.4326 153.76 31.6851 151.998C28.9376 150.237 26.4184 148.693 24.5838 147.594C23.6664 147.045 22.9192 146.609 22.4001 146.312L21.796 145.972C21.7324 145.931 21.665 145.896 21.5947 145.868Z" fill="#263238"/>
<path d="M35.1171 161.547C35.4207 162.259 35.8065 162.934 36.2671 163.561C36.8399 164.224 38.7103 165.148 38.858 166.408C39.0056 167.668 38.7014 170.625 40.7239 172.874C42.0277 174.274 43.6776 175.325 45.5163 175.927L53.4947 175.168L66.2387 170.28C66.5235 170.21 66.7686 170.033 66.921 169.789C67.0734 169.544 67.1208 169.251 67.0531 168.972C66.9741 168.669 66.8042 168.396 66.565 168.188C66.3259 167.98 66.0284 167.846 65.7107 167.804L65.4064 167.756C65.4064 167.756 66.1402 167.171 65.0887 166.147C64.1938 165.275 62.2831 165.767 61.2986 166.086C60.3142 166.404 54.5418 168.754 53.5082 169.116C52.5909 169.434 51.8838 169.718 51.8838 169.718C51.8838 169.718 59.2716 164.86 59.3745 164.224C59.4953 163.461 59.4148 163.112 58.6585 162.58C57.7636 161.948 56.2959 162.624 54.8729 163.208C53.8124 163.644 47.0512 166.897 47.0512 166.897C47.0512 166.897 46.7469 166.609 47.0512 166.025C47.3554 165.44 49.6018 162.624 49.9553 162.101C50.3088 161.577 50.4027 161.281 50.0492 160.84C49.557 160.217 48.2593 159.92 47.0646 160.984C46.3084 161.665 43.6191 163.426 43.6191 163.426L31.2062 154.601C31.2062 154.601 29.6625 154.562 30.1994 156.659C30.7364 158.756 35.1171 161.547 35.1171 161.547Z" fill="#FFBE9D"/>
<path d="M44.3712 168.902C44.8678 168.795 45.3304 168.572 45.7199 168.254C46.1094 167.935 46.4142 167.529 46.6086 167.071C46.5504 167.036 46.188 167.577 45.5704 168.078C44.9529 168.58 44.3399 168.837 44.3712 168.902Z" fill="#EB996E"/>
<path d="M43.3503 163.64C43.3503 163.614 43.1847 163.566 42.9028 163.6C42.5511 163.65 42.2202 163.793 41.9464 164.014C41.6725 164.235 41.4662 164.525 41.3501 164.852C41.2651 165.105 41.2785 165.288 41.3098 165.288C41.4973 164.881 41.7649 164.513 42.0974 164.207C42.4733 163.94 42.8988 163.748 43.3503 163.64Z" fill="#EB996E"/>
<path d="M42.7648 166.068C42.832 166.068 42.8633 165.419 43.1273 164.677C43.3913 163.936 43.7627 163.391 43.709 163.369C43.3158 163.696 43.036 164.133 42.908 164.621C42.708 165.077 42.658 165.583 42.7648 166.068V166.068Z" fill="#EB996E"/>
<path d="M35.4217 160.919C35.4217 160.941 35.5783 160.854 35.7394 160.644C35.9436 160.366 36.0714 160.042 36.1105 159.703C36.1497 159.363 36.0989 159.019 35.9631 158.704C35.8557 158.469 35.7349 158.351 35.7125 158.368C35.872 158.786 35.9287 159.234 35.8782 159.677C35.8277 160.12 35.6713 160.546 35.4217 160.919V160.919Z" fill="#EB996E"/>
<path d="M46.6395 171.946C46.9267 172.01 47.225 172.01 47.5121 171.946C48.2075 171.826 48.8747 171.584 49.481 171.231C50.0845 170.885 50.6524 170.483 51.1769 170.032C51.4103 169.865 51.617 169.665 51.7899 169.439C51.5324 169.565 51.2919 169.721 51.074 169.905C50.5285 170.315 49.9577 170.693 49.3646 171.034C48.7775 171.373 48.1429 171.628 47.4808 171.789C46.9707 171.893 46.6395 171.911 46.6395 171.946Z" fill="#EB996E"/>
<path d="M44.563 170.699C44.5003 170.699 44.4959 171.135 44.8717 171.497C45.2476 171.859 45.704 171.841 45.6951 171.78C45.6861 171.719 45.3416 171.632 45.0373 171.344C44.733 171.056 44.6301 170.69 44.563 170.699Z" fill="#EB996E"/>
<path d="M41.516 168.519C41.4891 168.519 41.4891 168.636 41.5741 168.793C41.6917 168.987 41.8685 169.139 42.0798 169.229C42.2894 169.329 42.5255 169.362 42.7555 169.325C42.9345 169.29 43.0239 169.221 43.0105 169.195C42.9971 169.168 42.5989 169.229 42.1782 169.024C41.7576 168.82 41.5786 168.497 41.516 168.519Z" fill="#EB996E"/>
<path d="M52.2644 173.467C52.2867 173.524 55.2535 172.321 58.8869 170.773C62.5204 169.225 65.4468 167.921 65.4021 167.869C65.3573 167.817 62.4085 169.02 58.775 170.568C55.1416 172.116 52.2375 173.411 52.2644 173.467Z" fill="#EB996E"/>
<path d="M-1.63737e-05 177.357C-1.63737e-05 177.418 45.114 177.47 100.748 177.47C156.382 177.47 201.505 177.418 201.505 177.357C201.505 177.296 156.4 177.243 100.748 177.243C45.0961 177.243 -1.63737e-05 177.291 -1.63737e-05 177.357Z" fill="#263238"/>
<path d="M195.741 130.908L186.031 177.357H101.75C101.304 177.357 100.876 177.184 100.56 176.877C100.245 176.569 100.068 176.152 100.068 175.717V175.717C100.067 175.502 100.11 175.288 100.194 175.089C100.279 174.889 100.403 174.708 100.559 174.555C100.715 174.402 100.901 174.281 101.105 174.199C101.31 174.116 101.529 174.073 101.75 174.073H118.718L127.721 130.86C127.805 130.457 128.028 130.094 128.354 129.833C128.68 129.571 129.089 129.427 129.511 129.426L193.916 128.754C194.19 128.751 194.462 128.808 194.712 128.921C194.961 129.034 195.181 129.2 195.356 129.406C195.531 129.613 195.657 129.855 195.723 130.115C195.79 130.374 195.796 130.646 195.741 130.908V130.908Z" fill="#E0E0E0"/>
<path d="M195.741 130.908L195.768 130.769C195.786 130.624 195.786 130.477 195.768 130.332C195.736 130.055 195.639 129.788 195.484 129.552C195.329 129.317 195.12 129.12 194.873 128.976C194.702 128.874 194.515 128.8 194.318 128.758C194.1 128.723 193.878 128.71 193.656 128.719H192.139L188.345 128.75L163.989 128.972L147.012 129.142L137.499 129.234L132.514 129.286L129.963 129.312C129.744 129.312 129.542 129.312 129.31 129.312C129.082 129.337 128.861 129.401 128.656 129.5C128.243 129.696 127.916 130.03 127.735 130.441C127.651 130.645 127.591 130.857 127.556 131.074L127.426 131.697C127.341 132.133 127.251 132.534 127.162 132.953C126.989 133.793 126.813 134.639 126.634 135.491C126.279 137.191 125.919 138.913 125.556 140.657C124.828 144.145 124.082 147.711 123.318 151.353C121.801 158.634 120.217 166.208 118.593 174.026L118.705 173.938H102.019C101.799 173.93 101.578 173.943 101.361 173.978C100.913 174.071 100.519 174.329 100.26 174.697C99.998 175.064 99.8907 175.515 99.9602 175.957C100.001 176.225 100.105 176.48 100.264 176.701C100.423 176.923 100.633 177.106 100.878 177.235C101.123 177.362 101.396 177.434 101.674 177.444H146.461H186.031H186.103V177.374C189.074 163.095 191.472 151.484 193.159 143.435C193.992 139.415 194.636 136.284 195.075 134.156C195.289 133.092 195.453 132.286 195.567 131.736C195.679 131.187 195.728 130.908 195.728 130.908C195.728 130.908 195.661 131.187 195.544 131.728C195.428 132.268 195.249 133.088 195.025 134.143C194.578 136.271 193.911 139.397 193.061 143.417C191.369 151.462 188.931 163.069 185.928 177.339L186.018 177.27L146.448 177.248H101.692C101.452 177.238 101.216 177.177 101.003 177.069C100.791 176.955 100.609 176.796 100.47 176.604C100.331 176.411 100.239 176.19 100.202 175.957C100.144 175.571 100.237 175.177 100.461 174.854C100.69 174.536 101.034 174.313 101.423 174.23C101.625 174.201 101.828 174.189 102.032 174.196H118.812V174.108C120.436 166.299 122.016 158.726 123.528 151.436C124.289 147.791 125.035 144.224 125.766 140.736L126.84 135.569C127.014 134.719 127.193 133.873 127.368 133.036C127.453 132.6 127.542 132.194 127.627 131.78L127.757 131.152C127.791 130.95 127.845 130.751 127.918 130.559C128.041 130.284 128.237 130.045 128.485 129.868C128.734 129.69 129.026 129.58 129.332 129.548C129.529 129.548 129.753 129.548 129.963 129.548L132.514 129.517L137.503 129.465L147.012 129.356L163.993 129.16L188.349 128.867L192.139 128.82L193.656 128.798C193.874 128.785 194.094 128.796 194.309 128.833C194.502 128.871 194.686 128.941 194.855 129.038C195.097 129.175 195.303 129.364 195.458 129.591C195.613 129.817 195.713 130.076 195.75 130.346C195.768 130.533 195.765 130.721 195.741 130.908V130.908Z" fill="#263238"/>
<path d="M159.688 154.876C158.151 154.876 156.905 153.662 156.905 152.164C156.905 150.666 158.151 149.452 159.688 149.452C161.226 149.452 162.472 150.666 162.472 152.164C162.472 153.662 161.226 154.876 159.688 154.876Z" fill="white"/>
<path d="M195.661 131.296C195.661 131.296 195.562 131.296 195.37 131.296H191.244L179.194 131.353L139.436 131.623L133.686 131.671H132.272C132.031 131.662 131.79 131.677 131.552 131.715C131.188 131.787 130.851 131.956 130.579 132.203C130.308 132.45 130.112 132.765 130.012 133.114C129.905 133.55 129.829 133.986 129.735 134.422L127.681 144.512C126.379 150.943 125.202 156.72 124.218 161.599C123.233 166.478 122.428 170.394 121.9 173.119C121.631 174.475 121.426 175.53 121.282 176.254C121.215 176.607 121.161 176.881 121.126 177.073C121.09 177.265 121.081 177.352 121.081 177.352C121.081 177.352 121.108 177.261 121.148 177.078C121.188 176.894 121.251 176.615 121.327 176.262L121.989 173.153C122.553 170.428 123.368 166.5 124.379 161.647C125.39 156.794 126.571 150.995 127.891 144.568C128.549 141.355 129.234 137.98 129.959 134.483C130.053 134.047 130.133 133.611 130.232 133.175C130.35 132.761 130.621 132.404 130.992 132.172C131.177 132.057 131.382 131.978 131.597 131.937C131.821 131.901 132.049 131.888 132.277 131.898H133.686L139.436 131.854L179.194 131.514L191.244 131.383L194.52 131.296H195.374H195.661Z" fill="#263238"/>
</svg>
